<svg width="24" height="24" viewBox="0 0 24 24" fill="none" xmlns="http://www.w3.org/2000/svg">
<path d="M15.3013 6.82411C15.3962 6.71558 15.5334 6.65332 15.6776 6.65332H16.1889C16.6185 6.65332 16.8481 7.15926 16.5652 7.48256L13.5387 10.9417C13.3827 11.12 13.3733 11.3835 13.5163 11.5725L17.3936 16.6986C17.6428 17.0279 17.4078 17.5002 16.9949 17.5002H14.5441C14.3884 17.5002 14.2415 17.4277 14.1469 17.304L11.7679 14.1935C11.576 13.9426 11.2025 13.9303 10.9944 14.1679L8.22755 17.3295C8.13261 17.438 7.99546 17.5002 7.8513 17.5002H7.33879C6.90922 17.5002 6.67963 16.9943 6.96249 16.671L10.2674 12.8937C10.4241 12.7146 10.4328 12.4498 10.2882 12.2607L6.61465 7.45706C6.36305 7.12805 6.59764 6.65332 7.01182 6.65332H9.54824C9.7049 6.65332 9.85251 6.72675 9.94701 6.85169L12.048 9.62935C12.2392 9.88215 12.6144 9.89551 12.8231 9.65694L15.3013 6.82411ZM14.6827 16.239C14.7597 16.3398 14.8793 16.3988 15.0061 16.3988C15.3423 16.3988 15.5337 16.0143 15.3308 15.7461L9.37317 7.86903C9.29115 7.76058 9.16303 7.69685 9.02706 7.69685C8.66757 7.69685 8.46398 8.1089 8.68238 8.39444L14.6827 16.239Z" fill="#A28485"/>
<path d="M2.5 12C2.5 7.52166 2.5 5.28249 3.89124 3.89124C5.28249 2.5 7.52166 2.5 12 2.5C16.4783 2.5 18.7175 2.5 20.1088 3.89124C21.5 5.28249 21.5 7.52166 21.5 12C21.5 16.4783 21.5 18.7175 20.1088 20.1088C18.7175 21.5 16.4783 21.5 12 21.5C7.52166 21.5 5.28249 21.5 3.89124 20.1088C2.5 18.7175 2.5 16.4783 2.5 12Z" stroke="#A28485" stroke-width="1.5" stroke-linejoin="round"/>
</svg>
