<svg width="173" height="73" viewBox="0 0 173 73" fill="none" xmlns="http://www.w3.org/2000/svg">
<g clip-path="url(#clip0_65_202)">
<path d="M72.4779 44.6194V49.322H69.7285V35.9712H74.9381C75.9415 35.9712 76.8234 36.1533 77.584 36.5211C78.3445 36.8889 78.9301 37.4102 79.3408 38.085C79.7514 38.7599 79.9549 39.5276 79.9549 40.3917C79.9549 41.6986 79.5086 42.7305 78.6123 43.4875C77.7161 44.2409 76.4771 44.6194 74.8952 44.6194H72.485H72.4779ZM72.4779 42.3913H74.9345C75.6629 42.3913 76.2164 42.2199 76.5985 41.8771C76.9805 41.5343 77.1733 41.0451 77.1733 40.4096C77.1733 39.774 76.9805 39.2277 76.5949 38.8242C76.2093 38.4207 75.6772 38.2136 74.9988 38.1993H72.4779V42.3913Z" fill="#3C1213"/>
<path d="M71.2746 57.431V59.6734H69.9641V53.3104H72.4457C72.9242 53.3104 73.3456 53.3961 73.7062 53.5711C74.0704 53.746 74.3489 53.996 74.5417 54.3174C74.7381 54.6387 74.8345 55.0065 74.8345 55.4171C74.8345 56.042 74.6203 56.5312 74.1954 56.8918C73.7669 57.2525 73.1777 57.431 72.4243 57.431H71.2746ZM71.2746 56.3669H72.4457C72.7921 56.3669 73.0563 56.2848 73.2384 56.1206C73.4205 55.9563 73.5134 55.7242 73.5134 55.4207C73.5134 55.1172 73.4205 54.8565 73.2384 54.6637C73.0563 54.4709 72.8028 54.3709 72.4779 54.3673H71.2746V56.3634V56.3669Z" fill="#3C1213"/>
<path d="M78.8837 59.6698C78.8266 59.5556 78.7837 59.4163 78.7587 59.2449C78.4517 59.5841 78.0553 59.7555 77.5661 59.7555C77.1019 59.7555 76.7199 59.6198 76.4128 59.352C76.1093 59.0842 75.9557 58.745 75.9557 58.338C75.9557 57.8381 76.1414 57.4524 76.5128 57.1846C76.8841 56.9168 77.4197 56.7811 78.1232 56.7776H78.7052V56.5062C78.7052 56.2884 78.648 56.1134 78.5374 55.9813C78.4267 55.8492 78.2481 55.7849 78.0053 55.7849C77.7911 55.7849 77.6268 55.8349 77.5054 55.9385C77.384 56.042 77.3233 56.1813 77.3233 56.3562H76.0593C76.0593 56.0813 76.145 55.8278 76.3128 55.5957C76.4806 55.3636 76.7199 55.1815 77.0305 55.0458C77.3376 54.9137 77.6875 54.8458 78.0696 54.8458C78.6516 54.8458 79.1158 54.9922 79.4586 55.285C79.8014 55.5778 79.9728 55.9884 79.9728 56.5205V58.5701C79.9728 59.02 80.037 59.3592 80.162 59.5877V59.6627H78.8873L78.8837 59.6698ZM77.8375 58.795C78.0232 58.795 78.1946 58.7522 78.3517 58.67C78.5088 58.5879 78.6266 58.4772 78.7016 58.3344V57.5203H78.2303C77.5983 57.5203 77.2626 57.7381 77.2198 58.1773V58.2523C77.2162 58.4094 77.2698 58.5379 77.3805 58.6415C77.4911 58.745 77.6411 58.795 77.8339 58.795H77.8375Z" fill="#3C1213"/>
<path d="M84.1362 56.1277C83.9648 56.1027 83.8113 56.092 83.6827 56.092C83.2043 56.092 82.8936 56.2527 82.7436 56.5776V59.6699H81.4796V54.9423H82.6722L82.7079 55.5064C82.9615 55.0708 83.3114 54.8566 83.7613 54.8566C83.9005 54.8566 84.0327 54.8744 84.1541 54.9137L84.1362 56.1277Z" fill="#3C1213"/>
<path d="M87.0106 53.7817V54.9422H87.8176V55.867H87.0106V58.2273C87.0106 58.4022 87.0427 58.5272 87.1106 58.6022C87.1784 58.6772 87.307 58.7164 87.4962 58.7164C87.6355 58.7164 87.7604 58.7057 87.8676 58.6843V59.6412C87.6212 59.7162 87.3641 59.7555 87.1034 59.7555C86.2179 59.7555 85.768 59.3092 85.7501 58.4129V55.867H85.061V54.9422H85.7501V53.7817H87.0142H87.0106Z" fill="#3C1213"/>
<path d="M90.2207 54.9423L90.2599 55.4886C90.5991 55.0672 91.0526 54.8566 91.6204 54.8566C92.1203 54.8566 92.4952 55.003 92.738 55.2993C92.9844 55.5921 93.1093 56.0349 93.1129 56.6205V59.6734H91.8489V56.6491C91.8489 56.3812 91.7918 56.1884 91.6739 56.067C91.5561 55.9456 91.3633 55.8849 91.0919 55.8849C90.7348 55.8849 90.4706 56.0349 90.2921 56.3384V59.6734H89.028V54.9458H90.2171L90.2207 54.9423Z" fill="#3C1213"/>
<path d="M96.7836 59.7591C96.0909 59.7591 95.5267 59.5449 95.0911 59.12C94.6555 58.6951 94.4377 58.1273 94.4377 57.4203V57.2989C94.4377 56.824 94.5305 56.3991 94.7126 56.0242C94.8947 55.6493 95.1554 55.36 95.491 55.1601C95.8266 54.9565 96.2123 54.8566 96.6443 54.8566C97.2906 54.8566 97.8012 55.0601 98.1726 55.4672C98.5439 55.8742 98.7296 56.4527 98.7296 57.2025V57.7167H95.7195C95.7588 58.0238 95.8838 58.2737 96.0873 58.4594C96.2944 58.6451 96.5515 58.7379 96.8657 58.7379C97.3513 58.7379 97.7334 58.5629 98.0048 58.2094L98.6261 58.9057C98.4368 59.1735 98.1797 59.3842 97.8584 59.5342C97.5334 59.6841 97.1764 59.7591 96.7836 59.7591ZM96.6408 55.8742C96.3908 55.8742 96.1873 55.9599 96.0302 56.1277C95.8731 56.2991 95.7731 56.5419 95.7302 56.8562H97.487V56.7562C97.4799 56.4741 97.4049 56.2563 97.2585 56.1027C97.1121 55.9492 96.905 55.8706 96.6372 55.8706L96.6408 55.8742Z" fill="#3C1213"/>
<path d="M102.64 56.1277C102.468 56.1027 102.315 56.092 102.186 56.092C101.708 56.092 101.397 56.2527 101.247 56.5776V59.6699H99.9829V54.9423H101.176L101.211 55.5064C101.465 55.0708 101.815 54.8566 102.265 54.8566C102.404 54.8566 102.536 54.8744 102.657 54.9137L102.64 56.1277Z" fill="#3C1213"/>
<path d="M106.342 58.3665C106.342 58.213 106.267 58.0916 106.114 58.0023C105.96 57.913 105.714 57.8345 105.378 57.7631C104.253 57.5274 103.693 57.0489 103.693 56.3312C103.693 55.9099 103.868 55.56 104.214 55.2815C104.561 54.9994 105.018 54.8601 105.578 54.8601C106.178 54.8601 106.657 55.0029 107.017 55.285C107.378 55.5671 107.556 55.9349 107.556 56.3848H106.292C106.292 56.2027 106.235 56.0563 106.117 55.9385C106 55.8206 105.817 55.7599 105.571 55.7599C105.357 55.7599 105.193 55.8063 105.078 55.9027C104.96 55.9992 104.903 56.1206 104.903 56.2705C104.903 56.4098 104.971 56.524 105.103 56.6097C105.235 56.6954 105.46 56.7704 105.775 56.8311C106.089 56.8954 106.353 56.9632 106.571 57.0418C107.239 57.2882 107.571 57.7095 107.571 58.313C107.571 58.745 107.385 59.0914 107.017 59.3592C106.649 59.627 106.171 59.7591 105.585 59.7591C105.189 59.7591 104.839 59.6877 104.528 59.5484C104.221 59.4056 103.979 59.2128 103.804 58.9664C103.629 58.72 103.543 58.4558 103.543 58.1701H104.739C104.75 58.3951 104.835 58.5665 104.989 58.6843C105.143 58.8022 105.35 58.8629 105.61 58.8629C105.853 58.8629 106.035 58.8164 106.16 58.7236C106.285 58.6308 106.346 58.5129 106.346 58.363L106.342 58.3665Z" fill="#3C1213"/>
<path d="M112.03 59.6699V55.8671H111.327V54.9423H112.03V54.5388C112.03 54.0103 112.184 53.5961 112.488 53.3033C112.791 53.0105 113.219 52.8641 113.766 52.8641C113.941 52.8641 114.155 52.8927 114.409 52.9534L114.394 53.9318C114.291 53.9068 114.162 53.8925 114.009 53.8925C113.534 53.8925 113.294 54.1139 113.294 54.5602V54.9387H114.234V55.8635H113.294V59.6663H112.027L112.03 59.6699Z" fill="#3C1213"/>
<path d="M115.233 57.2632C115.233 56.7954 115.323 56.3777 115.505 56.0099C115.687 55.6421 115.944 55.36 116.283 55.1565C116.622 54.9565 117.015 54.8566 117.465 54.8566C118.104 54.8566 118.622 55.053 119.029 55.4422C119.432 55.8314 119.657 56.3634 119.704 57.0311L119.711 57.3561C119.711 58.0809 119.507 58.6629 119.104 59.1021C118.7 59.5413 118.154 59.7591 117.476 59.7591C116.797 59.7591 116.251 59.5413 115.844 59.1021C115.437 58.6665 115.233 58.0702 115.233 57.3203V57.2632ZM116.497 57.3525C116.497 57.8024 116.583 58.1452 116.751 58.3844C116.919 58.6236 117.162 58.7415 117.476 58.7415C117.79 58.7415 118.022 58.6236 118.193 58.388C118.365 58.1523 118.451 57.7774 118.451 57.2596C118.451 56.8204 118.365 56.4777 118.193 56.2349C118.022 55.992 117.779 55.8706 117.469 55.8706C117.158 55.8706 116.922 55.992 116.751 56.2313C116.579 56.4705 116.497 56.8454 116.497 57.3489V57.3525Z" fill="#3C1213"/>
<path d="M123.685 56.1277C123.514 56.1027 123.36 56.092 123.232 56.092C122.753 56.092 122.443 56.2527 122.293 56.5776V59.6699H121.029V54.9423H122.221L122.257 55.5064C122.51 55.0708 122.86 54.8566 123.31 54.8566C123.45 54.8566 123.582 54.8744 123.703 54.9137L123.685 56.1277Z" fill="#3C1213"/>
<path d="M132.855 59.6699H131.544V56.9419H128.988V59.6699H127.677V53.3069H128.988V55.8849H131.544V53.3069H132.855V59.6699Z" fill="#3C1213"/>
<path d="M136.633 59.7591C135.94 59.7591 135.376 59.5449 134.94 59.12C134.504 58.6951 134.287 58.1273 134.287 57.4203V57.2989C134.287 56.824 134.379 56.3991 134.562 56.0242C134.744 55.6493 135.004 55.36 135.34 55.1601C135.676 54.9565 136.061 54.8566 136.493 54.8566C137.14 54.8566 137.65 55.0601 138.022 55.4672C138.393 55.8742 138.579 56.4527 138.579 57.2025V57.7167H135.568C135.608 58.0238 135.733 58.2737 135.936 58.4594C136.143 58.6451 136.4 58.7379 136.715 58.7379C137.2 58.7379 137.582 58.5629 137.854 58.2094L138.475 58.9057C138.286 59.1735 138.029 59.3842 137.707 59.5342C137.382 59.6841 137.025 59.7591 136.633 59.7591ZM136.486 55.8742C136.236 55.8742 136.033 55.9599 135.876 56.1277C135.718 56.2991 135.618 56.5419 135.576 56.8562H137.332V56.7562C137.325 56.4741 137.25 56.2563 137.104 56.1027C136.957 55.9492 136.75 55.8706 136.483 55.8706L136.486 55.8742Z" fill="#3C1213"/>
<path d="M142.571 59.6698C142.513 59.5556 142.471 59.4163 142.446 59.2449C142.138 59.5841 141.742 59.7555 141.253 59.7555C140.789 59.7555 140.407 59.6198 140.1 59.352C139.796 59.0842 139.643 58.745 139.643 58.338C139.643 57.8381 139.828 57.4524 140.2 57.1846C140.571 56.9168 141.107 56.7811 141.81 56.7776H142.392V56.5062C142.392 56.2884 142.335 56.1134 142.224 55.9813C142.114 55.8492 141.935 55.7849 141.692 55.7849C141.478 55.7849 141.314 55.8349 141.192 55.9385C141.071 56.042 141.01 56.1813 141.01 56.3562H139.746C139.746 56.0813 139.832 55.8278 140 55.5957C140.167 55.3636 140.407 55.1815 140.717 55.0458C141.024 54.9137 141.374 54.8458 141.756 54.8458C142.338 54.8458 142.803 54.9922 143.145 55.285C143.488 55.5778 143.66 55.9884 143.66 56.5205V58.5701C143.66 59.02 143.724 59.3592 143.849 59.5877V59.6627H142.574L142.571 59.6698ZM141.524 58.795C141.71 58.795 141.881 58.7522 142.039 58.67C142.196 58.5879 142.313 58.4772 142.388 58.3344V57.5203H141.917C141.285 57.5203 140.949 57.7381 140.907 58.1773V58.2523C140.903 58.4094 140.957 58.5379 141.067 58.6415C141.178 58.745 141.328 58.795 141.521 58.795H141.524Z" fill="#3C1213"/>
<path d="M146.498 59.6698H145.231V52.9569H146.498V59.6698Z" fill="#3C1213"/>
<path d="M149.587 53.7817V54.9422H150.394V55.867H149.587V58.2273C149.587 58.4022 149.619 58.5272 149.687 58.6022C149.755 58.6772 149.883 58.7164 150.073 58.7164C150.212 58.7164 150.337 58.7057 150.444 58.6843V59.6412C150.198 59.7162 149.94 59.7555 149.68 59.7555C148.794 59.7555 148.344 59.3092 148.327 58.4129V55.867H147.637V54.9422H148.327V53.7817H149.591H149.587Z" fill="#3C1213"/>
<path d="M152.868 55.46C153.204 55.0565 153.625 54.8566 154.132 54.8566C155.157 54.8566 155.679 55.4529 155.693 56.6455V59.6734H154.429V56.6812C154.429 56.4098 154.372 56.2099 154.254 56.0813C154.136 55.9528 153.943 55.8885 153.672 55.8885C153.301 55.8885 153.033 56.0313 152.868 56.317V59.677H151.604V52.9641H152.868V55.4636V55.46Z" fill="#3C1213"/>
<path d="M162.163 59.6698C162.113 59.5734 162.077 59.4555 162.056 59.3163C161.799 59.6019 161.467 59.7448 161.056 59.7448C160.667 59.7448 160.345 59.6341 160.092 59.4091C159.838 59.1842 159.71 58.9021 159.71 58.5593C159.71 58.1379 159.867 57.8166 160.178 57.5916C160.488 57.3667 160.938 57.2524 161.527 57.2524H162.013V57.0239C162.013 56.8418 161.967 56.6954 161.87 56.5847C161.774 56.474 161.627 56.4204 161.424 56.4204C161.245 56.4204 161.106 56.4633 161.006 56.549C160.906 56.6347 160.853 56.7525 160.853 56.8989H159.796C159.796 56.6704 159.867 56.4562 160.006 56.2633C160.146 56.0705 160.349 55.9134 160.606 55.8027C160.863 55.692 161.156 55.6349 161.477 55.6349C161.967 55.6349 162.352 55.7563 162.641 56.0027C162.927 56.249 163.07 56.5918 163.07 57.0382V58.7557C163.07 59.1306 163.123 59.4163 163.227 59.6091V59.6698H162.159H162.163ZM161.288 58.9342C161.445 58.9342 161.588 58.8985 161.72 58.8307C161.852 58.7628 161.949 58.6664 162.013 58.5521V57.8701H161.617C161.088 57.8701 160.806 58.0522 160.77 58.42V58.4807C160.767 58.6128 160.813 58.72 160.906 58.8057C160.999 58.8914 161.127 58.9342 161.288 58.9342Z" fill="#3C1213"/>
<path d="M165.312 55.7099L165.344 56.1669C165.627 55.8134 166.009 55.6349 166.483 55.6349C166.905 55.6349 167.215 55.7599 167.419 56.0062C167.623 56.2526 167.73 56.6204 167.733 57.1132V59.6733H166.676V57.1382C166.676 56.9132 166.626 56.7525 166.53 56.649C166.433 56.549 166.269 56.4954 166.044 56.4954C165.748 56.4954 165.523 56.624 165.373 56.8775V59.6698H164.316V55.7099H165.312Z" fill="#3C1213"/>
<path d="M168.822 57.6631C168.822 57.0454 168.962 56.5526 169.236 56.1884C169.515 55.8206 169.893 55.6385 170.372 55.6385C170.758 55.6385 171.075 55.7813 171.329 56.0706V54.0496H172.389V59.6734H171.432L171.382 59.2521C171.118 59.5806 170.779 59.7448 170.365 59.7448C169.897 59.7448 169.526 59.5627 169.244 59.1949C168.962 58.8271 168.822 58.3165 168.822 57.6631ZM169.879 57.7417C169.879 58.113 169.943 58.3987 170.072 58.5951C170.201 58.7914 170.39 58.8914 170.636 58.8914C170.965 58.8914 171.193 58.7522 171.329 58.4772V56.9133C171.197 56.6383 170.968 56.4991 170.643 56.4991C170.133 56.4991 169.879 56.9133 169.879 57.7417Z" fill="#3C1213"/>
<path d="M69.9641 68.9537V62.5907H71.9209C72.4815 62.5907 72.9814 62.7157 73.4206 62.9692C73.8633 63.2227 74.2061 63.5798 74.4525 64.044C74.6989 64.5082 74.8239 65.0366 74.8239 65.6294V65.9222C74.8239 66.5149 74.7025 67.0398 74.4596 67.5004C74.2168 67.961 73.874 68.3181 73.4313 68.5716C72.9885 68.8251 72.4886 68.9537 71.9316 68.9572H69.9606L69.9641 68.9537ZM71.2746 63.6548V67.9039H71.9066C72.4208 67.9039 72.81 67.7361 73.0814 67.4004C73.3527 67.0648 73.492 66.5863 73.4956 65.9614V65.6258C73.4956 64.9795 73.3599 64.4903 73.0921 64.1547C72.8243 63.8226 72.4315 63.6548 71.9173 63.6548H71.271H71.2746Z" fill="#3C1213"/>
<path d="M78.6088 69.0429C77.916 69.0429 77.3519 68.8287 76.9163 68.4038C76.4806 67.9789 76.2628 67.4111 76.2628 66.7041V66.5827C76.2628 66.1078 76.3557 65.6829 76.5378 65.308C76.7199 64.9331 76.9805 64.6438 77.3162 64.4439C77.6518 64.2404 78.0374 64.1404 78.4695 64.1404C79.1158 64.1404 79.6264 64.3439 79.9978 64.751C80.3691 65.158 80.5548 65.7365 80.5548 66.4863V67.0005H77.5447C77.584 67.3076 77.7089 67.5575 77.9125 67.7432C78.1196 67.9289 78.3767 68.0217 78.6909 68.0217C79.1765 68.0217 79.5586 67.8468 79.8299 67.4933L80.4512 68.1895C80.262 68.4573 80.0049 68.668 79.6835 68.818C79.3586 68.968 79.0015 69.0429 78.6088 69.0429ZM78.4624 65.158C78.2124 65.158 78.0089 65.2437 77.8518 65.4115C77.6947 65.5829 77.5947 65.8257 77.5518 66.14H79.3086V66.04C79.3015 65.7579 79.2265 65.5401 79.0801 65.3865C78.9337 65.233 78.7266 65.1545 78.4588 65.1545L78.4624 65.158Z" fill="#3C1213"/>
<path d="M83.7149 67.4147L84.5933 64.2296H85.9144L84.3183 68.9572H83.1114L81.5153 64.2296H82.8365L83.7149 67.4147Z" fill="#3C1213"/>
<path d="M89.378 69.0429C88.6853 69.0429 88.1211 68.8287 87.6855 68.4038C87.2499 67.9789 87.032 67.4111 87.032 66.7041V66.5827C87.032 66.1078 87.1249 65.6829 87.307 65.308C87.4891 64.9331 87.7498 64.6438 88.0854 64.4439C88.421 64.2404 88.8067 64.1404 89.2387 64.1404C89.885 64.1404 90.3956 64.3439 90.767 64.751C91.1383 65.158 91.324 65.7365 91.324 66.4863V67.0005H88.3139C88.3532 67.3076 88.4782 67.5575 88.6817 67.7432C88.8888 67.9289 89.1459 68.0217 89.4601 68.0217C89.9457 68.0217 90.3278 67.8468 90.5992 67.4933L91.2205 68.1895C91.0312 68.4573 90.7741 68.668 90.4528 68.818C90.1278 68.968 89.7708 69.0429 89.378 69.0429ZM89.2352 65.158C88.9852 65.158 88.7817 65.2437 88.6246 65.4115C88.4675 65.5829 88.3675 65.8257 88.3246 66.14H90.0814V66.04C90.0743 65.7579 89.9993 65.5401 89.8529 65.3865C89.7065 65.233 89.4994 65.1545 89.2316 65.1545L89.2352 65.158Z" fill="#3C1213"/>
<path d="M94.1056 68.9536H92.838V62.2407H94.1056V68.9536Z" fill="#3C1213"/>
<path d="M95.6838 66.547C95.6838 66.0793 95.7731 65.6615 95.9552 65.2937C96.1373 64.9259 96.3944 64.6438 96.7336 64.4403C97.0728 64.2404 97.4656 64.1404 97.9155 64.1404C98.5546 64.1404 99.0724 64.3368 99.4795 64.726C99.8829 65.1152 100.108 65.6472 100.154 66.3149L100.161 66.6399C100.161 67.3647 99.9579 67.9467 99.5544 68.3859C99.1509 68.8251 98.6046 69.0429 97.9262 69.0429C97.2478 69.0429 96.7015 68.8251 96.2944 68.3859C95.8873 67.9503 95.6838 67.354 95.6838 66.6042V66.547ZM96.9478 66.6363C96.9478 67.0862 97.0335 67.429 97.2014 67.6682C97.3692 67.9075 97.612 68.0253 97.9262 68.0253C98.2404 68.0253 98.4725 67.9075 98.6439 67.6718C98.8153 67.4361 98.901 67.0612 98.901 66.5435C98.901 66.1043 98.8153 65.7615 98.6439 65.5187C98.4725 65.2759 98.2297 65.1545 97.9191 65.1545C97.6084 65.1545 97.3727 65.2759 97.2014 65.5151C97.03 65.7543 96.9478 66.1293 96.9478 66.6327V66.6363Z" fill="#3C1213"/>
<path d="M105.932 66.6363C105.932 67.3647 105.767 67.9467 105.435 68.3859C105.103 68.8251 104.657 69.0429 104.096 69.0429C103.618 69.0429 103.232 68.8787 102.939 68.543V70.7712H101.675V64.2261H102.847L102.889 64.6903C103.197 64.3225 103.593 64.1404 104.086 64.1404C104.668 64.1404 105.121 64.3546 105.446 64.7867C105.771 65.2187 105.932 65.8115 105.932 66.5684V66.6327V66.6363ZM104.668 66.5435C104.668 66.1043 104.589 65.765 104.436 65.5258C104.278 65.2866 104.054 65.1687 103.757 65.1687C103.361 65.1687 103.089 65.3187 102.939 65.6222V67.5575C103.093 67.8682 103.368 68.0253 103.764 68.0253C104.368 68.0253 104.668 67.5325 104.668 66.5435Z" fill="#3C1213"/>
<path d="M108.631 64.226L108.67 64.7545C109.006 64.3438 109.46 64.1367 110.031 64.1367C110.641 64.1367 111.059 64.376 111.284 64.858C111.616 64.376 112.091 64.1367 112.705 64.1367C113.219 64.1367 113.598 64.2867 113.852 64.5831C114.101 64.883 114.226 65.3293 114.226 65.9328V68.9536H112.959V65.9399C112.959 65.6721 112.905 65.4757 112.802 65.3508C112.698 65.2258 112.512 65.1651 112.248 65.1651C111.87 65.1651 111.609 65.3472 111.463 65.7078V68.9536H110.206V65.9435C110.206 65.6685 110.152 65.4722 110.045 65.3508C109.938 65.2294 109.752 65.1686 109.495 65.1686C109.138 65.1686 108.878 65.3186 108.717 65.615V68.9572H107.453V64.2296H108.638L108.631 64.226Z" fill="#3C1213"/>
<path d="M118.104 69.0429C117.411 69.0429 116.847 68.8287 116.412 68.4038C115.976 67.9789 115.758 67.4111 115.758 66.7041V66.5827C115.758 66.1078 115.851 65.6829 116.033 65.308C116.215 64.9331 116.476 64.6438 116.812 64.4439C117.147 64.2404 117.533 64.1404 117.965 64.1404C118.611 64.1404 119.122 64.3439 119.493 64.751C119.865 65.158 120.05 65.7365 120.05 66.4863V67.0005H117.04C117.079 67.3076 117.204 67.5575 117.408 67.7432C117.615 67.9289 117.872 68.0217 118.186 68.0217C118.672 68.0217 119.054 67.8468 119.325 67.4933L119.947 68.1895C119.757 68.4573 119.5 68.668 119.179 68.818C118.854 68.968 118.497 69.0429 118.104 69.0429ZM117.961 65.158C117.711 65.158 117.508 65.2437 117.351 65.4115C117.194 65.5829 117.094 65.8257 117.051 66.14H118.808V66.04C118.8 65.7579 118.725 65.5401 118.579 65.3865C118.433 65.233 118.226 65.1545 117.958 65.1545L117.961 65.158Z" fill="#3C1213"/>
<path d="M122.66 64.2261L122.7 64.7724C123.039 64.351 123.492 64.1404 124.06 64.1404C124.56 64.1404 124.935 64.2868 125.178 64.5831C125.424 64.8759 125.549 65.3187 125.553 65.9043V68.9572H124.289V65.9329C124.289 65.6651 124.231 65.4722 124.114 65.3508C123.996 65.2294 123.803 65.1687 123.532 65.1687C123.175 65.1687 122.91 65.3187 122.732 65.6222V68.9572H121.468V64.2296H122.657L122.66 64.2261Z" fill="#3C1213"/>
<path d="M128.756 63.0656V64.226H129.563V65.1508H128.756V67.5111C128.756 67.686 128.788 67.811 128.856 67.886C128.923 67.961 129.052 68.0002 129.241 68.0002C129.38 68.0002 129.505 67.9895 129.613 67.9681V68.9251C129.366 69 129.109 69.0393 128.848 69.0393C127.963 69.0393 127.513 68.593 127.495 67.6967V65.1508H126.806V64.226H127.495V63.0656H128.759H128.756Z" fill="#3C1213"/>
<path d="M133.958 63.0048C133.958 62.8156 134.022 62.6585 134.147 62.5371C134.272 62.4157 134.447 62.355 134.665 62.355C134.883 62.355 135.051 62.4157 135.179 62.5371C135.308 62.6585 135.372 62.8156 135.372 63.0048C135.372 63.1941 135.308 63.3548 135.179 63.4762C135.051 63.5976 134.879 63.6583 134.665 63.6583C134.451 63.6583 134.283 63.5976 134.151 63.4762C134.022 63.3548 133.958 63.1977 133.958 63.0048ZM135.297 68.9536H134.029V64.226H135.297V68.9536Z" fill="#3C1213"/>
<path d="M138.236 64.2261L138.275 64.7724C138.614 64.351 139.068 64.1404 139.635 64.1404C140.135 64.1404 140.51 64.2868 140.753 64.5831C140.999 64.8759 141.124 65.3187 141.128 65.9043V68.9572H139.864V65.9329C139.864 65.6651 139.807 65.4722 139.689 65.3508C139.571 65.2294 139.378 65.1687 139.107 65.1687C138.75 65.1687 138.486 65.3187 138.307 65.6222V68.9572H137.043V64.2296H138.232L138.236 64.2261Z" fill="#3C1213"/>
<path d="M149.455 67.6432H147.155L146.72 68.9537H145.327L147.695 62.5907H148.909L151.29 68.9537H149.898L149.455 67.6432ZM147.512 66.5827H149.101L148.302 64.2011L147.509 66.5827H147.512Z" fill="#3C1213"/>
<path d="M152.883 68.9536V65.1508H152.179V64.226H152.883V63.8225C152.883 63.294 153.036 62.8798 153.34 62.587C153.643 62.2942 154.072 62.1478 154.618 62.1478C154.793 62.1478 155.007 62.1764 155.261 62.2371L155.247 63.2155C155.143 63.1905 155.014 63.1762 154.861 63.1762C154.386 63.1762 154.147 63.3976 154.147 63.8439V64.2224H155.086V65.1472H154.147V68.95H152.879L152.883 68.9536Z" fill="#3C1213"/>
<path d="M159.135 65.4115C158.964 65.3866 158.81 65.3758 158.682 65.3758C158.203 65.3758 157.892 65.5365 157.742 65.8615V68.9537H156.478V64.2261H157.671L157.707 64.7902C157.96 64.3546 158.31 64.1404 158.76 64.1404C158.899 64.1404 159.031 64.1582 159.153 64.1975L159.135 65.4115Z" fill="#3C1213"/>
<path d="M160.467 63.0048C160.467 62.8156 160.531 62.6585 160.656 62.5371C160.781 62.4157 160.956 62.355 161.174 62.355C161.392 62.355 161.56 62.4157 161.688 62.5371C161.817 62.6585 161.881 62.8156 161.881 63.0048C161.881 63.1941 161.817 63.3548 161.688 63.4762C161.56 63.5976 161.388 63.6583 161.174 63.6583C160.96 63.6583 160.792 63.5976 160.66 63.4762C160.531 63.3548 160.467 63.1977 160.467 63.0048ZM161.809 68.9536H160.542V64.226H161.809V68.9536Z" fill="#3C1213"/>
<path d="M165.548 68.0253C165.78 68.0253 165.969 67.961 166.116 67.8324C166.262 67.7039 166.337 67.5325 166.344 67.3218H167.53C167.53 67.6432 167.44 67.936 167.269 68.2038C167.098 68.4716 166.862 68.6787 166.562 68.8251C166.262 68.9715 165.934 69.0465 165.573 69.0465C164.898 69.0465 164.362 68.8322 163.973 68.4002C163.584 67.9717 163.388 67.3754 163.388 66.6184V66.5363C163.388 65.8079 163.581 65.2258 163.97 64.7938C164.355 64.3582 164.887 64.1439 165.566 64.1439C166.159 64.1439 166.63 64.3117 166.987 64.6474C167.344 64.983 167.526 65.4329 167.53 65.99H166.344C166.337 65.7436 166.262 65.5436 166.116 65.3901C165.969 65.2366 165.776 65.158 165.537 65.158C165.244 65.158 165.02 65.2651 164.87 65.4794C164.72 65.6936 164.645 66.0435 164.645 66.522V66.6541C164.645 67.1397 164.72 67.4932 164.866 67.7039C165.016 67.9181 165.241 68.0253 165.544 68.0253H165.548Z" fill="#3C1213"/>
<path d="M171.722 68.9536C171.665 68.8394 171.622 68.7001 171.597 68.5287C171.29 68.8679 170.893 69.0393 170.404 69.0393C169.94 69.0393 169.558 68.9037 169.251 68.6358C168.947 68.368 168.794 68.0288 168.794 67.6218C168.794 67.1219 168.979 66.7362 169.351 66.4684C169.722 66.2006 170.258 66.0649 170.961 66.0614H171.543V65.79C171.543 65.5722 171.486 65.3972 171.375 65.2651C171.265 65.133 171.086 65.0687 170.843 65.0687C170.629 65.0687 170.465 65.1187 170.343 65.2223C170.222 65.3258 170.161 65.4651 170.161 65.64H168.897C168.897 65.3651 168.983 65.1116 169.151 64.8795C169.319 64.6474 169.558 64.4653 169.868 64.3296C170.176 64.1975 170.525 64.1296 170.908 64.1296C171.49 64.1296 171.954 64.276 172.297 64.5688C172.639 64.8616 172.811 65.2723 172.811 65.8043V67.8539C172.811 68.3038 172.875 68.643 173 68.8715V68.9465H171.725L171.722 68.9536ZM170.679 68.0788C170.865 68.0788 171.036 68.036 171.193 67.9538C171.35 67.8717 171.468 67.761 171.543 67.6182V66.8041H171.072C170.44 66.8041 170.104 67.0219 170.061 67.4611V67.5361C170.058 67.6932 170.111 67.8217 170.222 67.9253C170.333 68.0288 170.483 68.0788 170.675 68.0788H170.679Z" fill="#3C1213"/>
<path d="M95.2054 49.3255H92.4559V43.6017H87.0928V49.3255H84.3433V35.9747H87.0928V41.3843H92.4559V35.9747H95.2054V49.3255Z" fill="#3C1213"/>
<path d="M100.779 49.3255V35.9747H104.889C106.064 35.9747 107.114 36.239 108.038 36.7674C108.963 37.2959 109.688 38.0493 110.206 39.0241C110.727 39.9989 110.984 41.1058 110.984 42.3484V42.9626C110.984 44.2052 110.731 45.3085 110.22 46.2726C109.709 47.2403 108.988 47.9865 108.06 48.5186C107.131 49.0506 106.082 49.3184 104.914 49.3255H100.779ZM103.532 38.2028V47.1153H104.86C105.935 47.1153 106.76 46.7654 107.328 46.0619C107.896 45.3585 108.188 44.3516 108.199 43.0447V42.3377C108.199 40.9808 107.917 39.9525 107.356 39.2526C106.796 38.5528 105.971 38.2028 104.889 38.2028H103.532Z" fill="#3C1213"/>
<path d="M122.928 46.5726H118.104L117.187 49.322H114.262L119.233 35.9712H121.782L126.781 49.322H123.857L122.932 46.5726H122.928ZM118.847 44.3445H122.185L120.507 39.3455L118.847 44.3445Z" fill="#3C1213"/>
<path d="M68.5358 25.2234C68.0895 26.5445 67.5325 27.805 66.904 28.994C63.2726 35.9176 57.3346 40.4381 57.3346 40.4381V44.2908L57.6774 44.4801L57.6274 45.2549L58.1594 45.6334L58.2808 47.5616L58.2987 48.49L58.7807 49.2648L59.227 50.2468L58.9342 51.2073L58.4522 51.8107L58.5379 52.8427L58.8485 53.4104L58.7807 54.2388L58.1416 55.1136L56.1277 56.699L52.5677 59.227L52.4642 60.4161L52.6713 61.7051L52.4963 63.0477L52.0857 63.9582L51.3108 64.3724L50.4503 64.5438L49.729 64.908V65.715L49.3505 66.9719L48.7471 67.6432L47.8187 68.5715L46.8367 69.2785L45.5442 70.0855L42.5162 71.3781L41.6164 71.6495L40.4524 71.9958H38.492L35.3141 71.5674L35.2284 70.9996L34.7035 70.0962L33.8537 68.4609L32.8896 67.6432L32.1933 65.8685V64.376L31.772 63.8082L31.7863 62.3086L31.4613 61.373L30.9436 61.2052L30.9579 60.2697L30.3437 59.7841L30.3366 59.0628L29.2011 58.0094L29.1725 54.0995L29.6903 54.0781L29.6831 52.6855L29.9867 51.9286L30.5651 51.5929L31.0721 51.243L31.0864 49.8433L30.7115 49.3255L30.5722 48.8256L30.0116 48.3471L30.0188 45.5334L29.1761 44.1552L28.9047 43.4982L28.6476 43.1197L28.4441 42.6269L27.8549 42.1556L27.0301 41.1236L26.066 39.5418L21.4563 32.1755L21.1778 31.4899L20.9742 30.8686L19.7352 30.7294L18.2177 30.9365L12.0582 32.3469H11.6797L10.7692 32.3147C10.7692 32.3147 9.94079 32.6575 9.8908 32.6754C9.84081 32.6932 9.03026 32.9325 9.03026 32.9325L7.53415 32.6754L6.62005 32.4004L5.02038 30.9543L4.02416 30.4901L3.14577 29.6831L2.88868 27.9942L2.43877 27.2908L1.88888 26.5838L1.339 26.291L0.357056 25.3626V20.51L1.66393 18.6854V14.2292L4.34909 11.9582V10.8906L6.39867 8.48038H7.87693L9.9765 6.64147C9.9765 6.64147 10.0443 5.86663 10.0443 4.93468C11.0084 3.78492 13.6757 2.45662 13.6757 2.45662L14.1078 1.56395L15.5861 1.64965L16.4109 2.01029H17.8392L19.6138 0.928366L21.9704 0.753402L22.1776 0.357056H28.1835C28.2334 0.357056 28.2691 1.09976 28.2691 1.09976C28.2691 1.09976 28.6976 1.51039 28.8012 1.5818C28.9047 1.64965 28.5441 2.18168 28.5441 2.18168L27.805 2.78513L28.1156 3.28502C28.1156 3.28502 28.8012 3.54211 28.9226 3.57782C29.044 3.60996 29.6617 3.98845 29.6974 4.04201C29.7331 4.092 31.6756 4.1777 31.6756 4.1777L33.1717 5.09179L33.261 5.45243L34.2072 5.53813L34.7749 5.86663L48.7471 7.2592L49.3327 8.0519L50.0539 9.08383L51.1216 10.7013L54.6673 16.5858L54.9744 17.4464L55.6992 18.3426L56.2491 19.271L57.3167 20.3708L57.4203 21.0242L58.0059 21.6812L58.6593 21.9562L59.4484 22.6096L60.4482 23.6058L61.3445 24.6378L61.6194 25.8768L62.205 26.5338L63.3726 26.5659L64.5438 26.4302L65.1615 26.291L65.4043 25.9803L66.5755 25.9482L66.7112 25.4983C66.7112 25.4983 67.2968 25.3983 68.5358 25.2234Z" fill="#3C1213"/>
<path d="M28.1835 0.357222C28.2335 0.357222 28.2692 1.09636 28.2692 1.09636C28.2692 1.09636 28.6977 1.51056 28.8012 1.5784C28.9048 1.64624 28.5441 2.18185 28.5441 2.18185L27.805 2.78529L28.1156 3.28519C28.1156 3.28519 28.8048 3.54228 28.9262 3.57799C29.0476 3.61369 29.6653 3.99219 29.701 4.04218C29.7367 4.09217 31.6792 4.18143 31.6792 4.18143L33.1753 5.09196L33.261 5.4526L34.2072 5.5383L34.775 5.8668L48.7471 7.25937L49.3327 8.05206L50.054 9.08399L51.1216 10.7015L54.6673 16.586L54.9779 17.4466L55.6992 18.3428L56.2491 19.2712L57.3167 20.3709L57.4203 21.0244L58.0059 21.6778L58.6593 21.9528L59.452 22.6062L60.4518 23.606L61.3481 24.6379L61.623 25.877L62.2086 26.5304L63.3798 26.5661L64.551 26.4268L65.1687 26.2876L65.4079 25.9769L66.5791 25.9412L66.7184 25.4949C66.7184 25.4949 67.304 25.3913 68.543 25.2199C65.4972 34.2288 57.3417 40.4311 57.3417 40.4311V44.2874L57.6845 44.4767L57.6345 45.2515L58.1666 45.63L58.288 47.5582L58.3058 48.4866L58.7879 49.2614L59.2342 50.2434L58.9414 51.2074L58.4594 51.8109L58.5451 52.8428L58.8557 53.4106L58.7879 54.2354L58.1523 55.1138L56.1384 56.6956L52.5749 59.2236L52.4713 60.4127L52.6784 61.7017L52.507 63.0443L52.0928 63.9548L51.318 64.369L50.4574 64.5404L49.7362 64.901V65.7116L49.3577 66.9685L48.7542 67.6398L47.8258 68.5681L46.8439 69.2751L45.5549 70.0857L42.5269 71.3747L40.4631 71.9924H38.5028L35.3284 71.5639L35.2427 70.9962L34.7178 70.0928L33.8644 68.4575L32.9004 67.6398L32.2041 65.8687V64.3761L31.7827 63.8084L31.8006 62.3087L31.4721 61.3768L30.9543 61.2089L30.9686 60.2699L30.3545 59.7842V59.0665L29.2154 58.0132L29.1868 54.1033L29.7046 54.0818V52.6893L30.0009 51.9323L30.583 51.5966L31.09 51.2467L31.1043 49.847L30.7294 49.3257L30.5865 48.8258L30.0259 48.3473L30.0331 45.5336L29.1904 44.1518L28.919 43.4983L28.6619 43.1198L28.4584 42.6235L27.8692 42.1557L27.0444 41.1238L26.0803 39.542L21.467 32.1757L21.1921 31.4865L20.985 30.8688L19.7459 30.7295L18.232 30.9366L12.0725 32.347H11.694L10.7835 32.3113C10.7835 32.3113 9.95866 32.6541 9.9051 32.672C9.85511 32.6898 9.04456 32.9291 9.04456 32.9291L7.54844 32.672L6.63792 32.397L5.03825 30.9509L4.03845 30.4867L3.16006 29.6797L2.90297 27.9944L2.45664 27.2874L1.90675 26.5804L1.35686 26.2876L0.374923 25.3592V20.5066L1.6818 18.682V14.2258L4.36696 11.9548V10.8872L6.41296 8.47697H7.89123L9.9908 6.6345C9.9908 6.6345 10.0586 5.85966 10.0586 4.93128C11.0227 3.77794 13.69 2.45322 13.69 2.45322L14.1185 1.55697L15.5968 1.64267L16.4216 2.00331H17.8499L19.621 0.91782L21.9776 0.746427L22.1847 0.350081H28.1906M28.1835 0.000152723H21.9598L21.8598 0.19297L21.7455 0.410782L19.5852 0.567893L19.4995 0.575034L19.4246 0.621453L17.7392 1.65338H16.4859L15.7289 1.32131L15.6718 1.29631H15.6075L14.1292 1.20705L13.89 1.19276L13.7864 1.40701L13.4079 2.19256C12.8795 2.46393 10.6692 3.63155 9.77298 4.70632L9.69086 4.8063V4.93485C9.69086 5.60614 9.65515 6.20244 9.63373 6.46668L7.74483 8.12348H6.23443L6.12731 8.24845L4.0813 10.6587L3.9956 10.7586V11.7906L1.43899 13.9544L1.31401 14.0615V18.5677L0.0678431 20.2995L0 20.3924V25.5127L0.110691 25.6199L1.09263 26.5482L1.12834 26.5804L1.17119 26.6018L1.65323 26.8589L2.14599 27.4909L2.54233 28.1194L2.78871 29.7333L2.80656 29.8583L2.8994 29.944L3.77779 30.751L3.81707 30.7902L3.86706 30.8152L4.81686 31.258L6.37726 32.6684L6.43796 32.722L6.51294 32.7434L7.42347 33.0183L7.44489 33.0255H7.46632L8.96244 33.2861L9.04456 33.3004L9.12312 33.2754C9.31236 33.2183 9.94081 33.0326 9.99437 33.0148C10.0336 33.0005 10.3157 32.8862 10.8228 32.6756L11.6547 32.7077H12.0475H12.0868L12.1261 32.697L18.2712 31.2901L19.7245 31.0902L20.6922 31.1973L20.8278 31.6008V31.6115L20.835 31.6222L21.1099 32.3113L21.1206 32.3399L21.1385 32.3685L25.7518 39.7348L26.7123 41.3131L26.7231 41.3309L26.7373 41.3488L27.5622 42.3807L27.5872 42.4128L27.6193 42.4378L28.1371 42.8485L28.3049 43.2555L28.3192 43.2912L28.3406 43.3234L28.5762 43.6733L28.8333 44.2946L28.844 44.3196L28.8583 44.3446L29.6475 45.6407L29.6403 48.3545V48.5187L29.7653 48.6258L30.2438 49.0329L30.3545 49.4292L30.3723 49.4899L30.408 49.5399L30.7151 49.9648L30.7044 51.061L30.3616 51.2967L29.7939 51.6252L29.6867 51.6859L29.6403 51.8002L29.3404 52.5572L29.3154 52.6214V52.6893V53.7391L29.144 53.7462L28.7976 53.7605V54.1068L28.8298 58.0167V58.1703L28.944 58.2738L29.9652 59.2236V59.7878L29.9688 59.9592L30.1045 60.0663L30.583 60.4448L30.5723 61.2054V61.4696L30.8186 61.5517L31.165 61.666L31.4114 62.373L31.3935 63.812V63.9334L31.4649 64.0298L31.8149 64.5011V65.9437L31.8399 66.008L32.5361 67.779L32.5683 67.8611L32.6361 67.9183L33.5466 68.6895L34.3643 70.2607L34.8642 71.1212L34.9392 71.6211L34.9785 71.8853L35.2427 71.921L38.4171 72.3495H38.4421H38.4671H40.4809L40.5309 72.3352L42.5948 71.7139L42.6126 71.7068L42.6305 71.6996L45.6584 70.4106L45.6834 70.3999L45.7084 70.3856L46.9974 69.5787L47.0082 69.5715L47.0189 69.5644L48.0008 68.8574L48.0258 68.8395L48.0472 68.8181L48.9756 67.8897L48.9827 67.8826L48.9899 67.8754L49.5933 67.2041L49.6469 67.1434L49.6683 67.0685L50.0468 65.8116L50.0611 65.7616V65.1224L50.5431 64.8796L51.3573 64.7154L51.4072 64.7047L51.4537 64.6797L52.2285 64.2655L52.3356 64.2083L52.3856 64.0976L52.7998 63.1871L52.8212 63.1371L52.8284 63.0836L52.9998 61.741L53.0069 61.691L52.9998 61.641L52.7998 60.3948L52.8855 59.4165L56.3134 56.9812L58.3415 55.3887L58.3808 55.3566L58.4094 55.3173L59.045 54.4389L59.1021 54.3568L59.1092 54.2568L59.1771 53.432L59.1842 53.3249L59.1342 53.232L58.8593 52.7286L58.7914 51.9144L59.1842 51.4217L59.2271 51.3681L59.2485 51.3038L59.5413 50.3398L59.5806 50.2112L59.5234 50.0898L59.0771 49.1079L59.0664 49.0864L59.0557 49.0686L58.6272 48.3795L58.6129 47.5475L58.4915 45.605L58.4808 45.4336L58.3415 45.3337L57.9702 45.0694L58.0095 44.4945L58.0237 44.266L57.8238 44.1553L57.6631 44.0661V40.5953C58.7664 39.7134 66.0221 33.6789 68.8465 25.3235L69.0322 24.7772L68.4609 24.8557C67.229 25.0271 66.647 25.1271 66.6255 25.1343L66.4113 25.1735L66.347 25.3806L66.2863 25.5842L65.3722 25.6127H65.2044L65.1009 25.752L64.9402 25.9591L64.4653 26.0662L63.3405 26.1983L62.3514 26.1698L61.9301 25.6984L61.6766 24.5522L61.6587 24.463L61.598 24.3951L60.7018 23.3632L60.6946 23.3525L60.6839 23.3418L59.6841 22.342L59.6734 22.3313L59.6591 22.3205L58.8664 21.6671L58.8271 21.635L58.7772 21.6135L58.1987 21.3707L57.7381 20.8566L57.6524 20.3067L57.6345 20.196L57.556 20.1139L56.5169 19.0427L55.9884 18.15L55.9742 18.1286L55.9563 18.1071L55.2707 17.2573L54.9815 16.4539L54.9708 16.4218L54.9529 16.3932L51.4072 10.5087L50.3325 8.88046L49.604 7.84139L49.0149 7.04156L48.922 6.91301L48.7649 6.89873L34.8678 5.5133L34.3679 5.22407L34.3001 5.1848L34.2215 5.17766L33.5324 5.11338L33.5074 5.00269L33.4717 4.85629L33.3431 4.77774L31.847 3.86721L31.7684 3.82079H31.6756C30.9222 3.78509 30.0795 3.7351 29.8367 3.70296C29.5832 3.51014 29.1011 3.25305 29.0047 3.22806C28.944 3.2102 28.6369 3.09951 28.337 2.98525L28.2585 2.85671L28.7548 2.45322L28.7941 2.42108L28.8226 2.37823C29.2083 1.81049 29.169 1.61768 29.1511 1.53555C29.1297 1.42843 29.069 1.33916 28.9833 1.27846C28.9405 1.24632 28.7655 1.08921 28.6012 0.932103C28.5727 0.325086 28.5298 -0.00341797 28.1656 -0.00341797L28.1835 0.000152723Z" fill="#3C1213"/>
<path d="M16.7323 43.6803C15.8824 41.3701 11.5191 30.783 31.1579 15.4968C44.5122 5.10255 61.1695 4.34556 64.8866 10.4729C62.4264 3.41718 49.5184 -4.27409 28.8869 9.50878C3.83493 26.2446 14.4113 42.1878 16.7323 43.6803Z" fill="white" stroke="#3C1213" stroke-width="0.357069" stroke-miterlimit="10"/>
<path d="M27.63 53.0283C21.849 49.5183 21.1206 36.8102 37.4887 24.5306C54.8351 11.5226 66.2434 16.2716 68.4751 21.5348C69.1857 14.3577 63.4119 9.94432 55.5564 10.28C35.0106 11.1584 3.00294 44.4051 27.6264 53.0247L27.63 53.0283Z" fill="#FCB316" stroke="#3C1213" stroke-width="0.357069" stroke-miterlimit="10"/>
<path d="M46.5868 40.0168C49.7303 40.0168 52.2785 37.4685 52.2785 34.3251C52.2785 31.1817 49.7303 28.6334 46.5868 28.6334C43.4434 28.6334 40.8951 31.1817 40.8951 34.3251C40.8951 37.4685 43.4434 40.0168 46.5868 40.0168Z" fill="white"/>
<path d="M57.3346 40.4381V44.2909L57.6774 44.4801L57.6274 45.2549L58.1594 45.6334L58.2808 47.5616L58.2987 48.49L58.7807 49.2648L59.2271 50.2468L58.9343 51.2073L58.4522 51.8107L58.5379 52.8427L58.8486 53.4104L58.7807 54.2388L58.1416 55.1136L56.1277 56.699L52.5677 59.2271L52.4642 60.4161L52.6713 61.7051L52.4963 63.0477L52.0857 63.9582L51.3108 64.3724L50.4503 64.5438L49.729 64.908V65.715L49.3505 66.9719L48.7471 67.6432L47.8187 68.5716L46.8368 69.2786L45.5442 70.0855L42.5162 71.3781L41.6164 71.6495C41.5843 71.6388 41.5486 71.6281 41.5164 71.6138C46.9367 66.4006 48.8471 64.4367 48.64 55.867C48.4721 48.9256 47.0653 46.976 46.8868 46.6797C46.8868 46.6797 39.7097 52.4106 32.8539 52.557C32.8539 52.557 41.5664 48.0722 44.2266 42.2913C49.1827 42.7805 53.5175 40.0203 54.1388 35.7105C58.0595 35.4106 64.0796 31.9291 66.9041 28.994C63.2727 35.9176 57.3346 40.4381 57.3346 40.4381Z" fill="#FCB316"/>
</g>
<defs>
<clipPath id="clip0_65_202">
<rect width="173" height="72.3529" fill="white"/>
</clipPath>
</defs>
</svg>
