<?xml version="1.0" encoding="UTF-8" standalone="no"?><!DOCTYPE svg PUBLIC "-//W3C//DTD SVG 1.1//EN" "http://www.w3.org/Graphics/SVG/1.1/DTD/svg11.dtd"><svg width="100%" height="100%" viewBox="0 0 130 55" version="1.1" xmlns="http://www.w3.org/2000/svg" xmlns:xlink="http://www.w3.org/1999/xlink" xml:space="preserve" xmlns:serif="http://www.serif.com/" style="fill-rule:evenodd;clip-rule:evenodd;stroke-miterlimit:10;"><g><path d="M54.358,33.467l0,3.527l-2.062,0l0,-10.013l3.908,-0c0.752,-0 1.414,0.137 1.984,0.412c0.57,0.276 1.01,0.667 1.318,1.173c0.308,0.506 0.46,1.082 0.46,1.73c0,0.981 -0.335,1.754 -1.007,2.322c-0.672,0.565 -1.601,0.849 -2.788,0.849l-1.813,0Zm0,-1.671l1.843,0c0.546,0 0.961,-0.129 1.248,-0.386c0.286,-0.257 0.431,-0.624 0.431,-1.1c-0,-0.477 -0.145,-0.887 -0.434,-1.189c-0.289,-0.303 -0.688,-0.458 -1.197,-0.469l-1.891,0l0,3.144Z" style="fill:#3c1213;fill-rule:nonzero;"/><path d="M53.456,43.076l-0,1.682l-0.983,-0l0,-4.773l1.861,0c0.359,0 0.675,0.065 0.946,0.196c0.273,0.131 0.482,0.319 0.626,0.56c0.148,0.241 0.22,0.516 0.22,0.824c-0,0.469 -0.161,0.836 -0.479,1.106c-0.322,0.271 -0.764,0.405 -1.329,0.405l-0.862,-0Zm-0,-0.798l0.878,-0c0.26,-0 0.458,-0.062 0.595,-0.185c0.136,-0.123 0.206,-0.297 0.206,-0.525c0,-0.228 -0.07,-0.423 -0.206,-0.568c-0.137,-0.144 -0.327,-0.219 -0.571,-0.222l-0.902,0l-0,1.5Z" style="fill:#3c1213;fill-rule:nonzero;"/><path d="M59.163,44.755c-0.043,-0.086 -0.075,-0.19 -0.094,-0.319c-0.23,0.255 -0.528,0.383 -0.894,0.383c-0.349,0 -0.635,-0.102 -0.865,-0.302c-0.228,-0.201 -0.343,-0.456 -0.343,-0.761c-0,-0.375 0.139,-0.664 0.418,-0.865c0.278,-0.201 0.68,-0.303 1.207,-0.305l0.437,-0l-0,-0.204c-0,-0.163 -0.043,-0.294 -0.126,-0.393c-0.083,-0.1 -0.217,-0.148 -0.399,-0.148c-0.161,0 -0.284,0.038 -0.375,0.115c-0.091,0.078 -0.137,0.183 -0.137,0.314l-0.948,-0c0,-0.206 0.065,-0.397 0.191,-0.571c0.125,-0.174 0.305,-0.31 0.538,-0.412c0.23,-0.099 0.493,-0.15 0.779,-0.15c0.437,-0 0.785,0.11 1.042,0.329c0.257,0.22 0.386,0.528 0.386,0.927l-0,1.537c-0,0.338 0.048,0.592 0.142,0.763l-0.001,0.057l-0.956,-0l-0.002,0.005Zm-0.785,-0.656c0.139,-0 0.268,-0.032 0.386,-0.094c0.118,-0.062 0.206,-0.145 0.262,-0.252l0,-0.61l-0.353,-0c-0.474,-0 -0.726,0.163 -0.758,0.493l-0,0.056c-0.003,0.118 0.037,0.214 0.12,0.292c0.083,0.077 0.196,0.115 0.34,0.115l0.003,-0Z" style="fill:#3c1213;fill-rule:nonzero;"/><path d="M63.102,42.098c-0.128,-0.018 -0.244,-0.026 -0.34,-0.026c-0.359,-0 -0.592,0.12 -0.704,0.364l-0,2.319l-0.948,-0l-0,-3.546l0.894,0l0.027,0.423c0.19,-0.326 0.453,-0.487 0.79,-0.487c0.104,0 0.204,0.013 0.295,0.043l-0.014,0.91Z" style="fill:#3c1213;fill-rule:nonzero;"/><path d="M65.258,40.339l-0,0.87l0.605,0l0,0.694l-0.605,-0l-0,1.77c-0,0.131 0.024,0.225 0.075,0.281c0.051,0.056 0.147,0.086 0.289,0.086c0.105,-0 0.198,-0.008 0.279,-0.024l-0,0.717c-0.185,0.057 -0.378,0.086 -0.573,0.086c-0.665,0 -1.002,-0.335 -1.015,-1.007l-0,-1.909l-0.517,-0l-0,-0.694l0.517,0l-0,-0.87l0.948,-0l-0.003,-0Z" style="fill:#3c1213;fill-rule:nonzero;"/><path d="M67.666,41.209l0.029,0.41c0.254,-0.316 0.594,-0.474 1.02,-0.474c0.375,0 0.656,0.11 0.839,0.332c0.184,0.22 0.278,0.552 0.281,0.991l-0,2.29l-0.948,-0l-0,-2.269c-0,-0.201 -0.043,-0.345 -0.132,-0.436c-0.088,-0.091 -0.233,-0.137 -0.436,-0.137c-0.268,0 -0.466,0.113 -0.6,0.34l0,2.502l-0.948,-0l0,-3.546l0.892,-0l0.003,-0.003Z" style="fill:#3c1213;fill-rule:nonzero;"/><path d="M72.588,44.822c-0.52,-0 -0.943,-0.161 -1.27,-0.479c-0.326,-0.319 -0.49,-0.745 -0.49,-1.275l0,-0.091c0,-0.356 0.07,-0.675 0.206,-0.956c0.137,-0.281 0.333,-0.498 0.584,-0.648c0.252,-0.153 0.541,-0.228 0.865,-0.228c0.485,0 0.868,0.153 1.146,0.458c0.279,0.305 0.418,0.739 0.418,1.301l0,0.386l-2.257,0c0.029,0.23 0.123,0.418 0.275,0.557c0.156,0.139 0.349,0.209 0.584,0.209c0.364,-0 0.651,-0.131 0.855,-0.396l0.466,0.522c-0.142,0.201 -0.335,0.359 -0.576,0.471c-0.244,0.113 -0.512,0.169 -0.806,0.169Zm-0.107,-2.914c-0.188,0 -0.341,0.064 -0.458,0.19c-0.118,0.129 -0.193,0.311 -0.225,0.547l1.317,-0l0,-0.075c-0.005,-0.212 -0.061,-0.375 -0.171,-0.49c-0.11,-0.116 -0.265,-0.174 -0.466,-0.174l0.003,0.002Z" style="fill:#3c1213;fill-rule:nonzero;"/><path d="M76.98,42.098c-0.129,-0.018 -0.244,-0.026 -0.341,-0.026c-0.358,-0 -0.591,0.12 -0.704,0.364l0,2.319l-0.948,-0l0,-3.546l0.895,0l0.026,0.423c0.191,-0.326 0.453,-0.487 0.791,-0.487c0.104,0 0.203,0.013 0.294,0.043l-0.013,0.91Z" style="fill:#3c1213;fill-rule:nonzero;"/><path d="M79.757,43.777c-0.001,-0.115 -0.057,-0.206 -0.172,-0.273c-0.115,-0.067 -0.3,-0.126 -0.552,-0.179c-0.843,-0.177 -1.263,-0.536 -1.263,-1.074c-0,-0.316 0.131,-0.578 0.391,-0.787c0.26,-0.212 0.602,-0.316 1.023,-0.316c0.45,-0 0.809,0.107 1.079,0.318c0.271,0.212 0.404,0.488 0.404,0.825l-0.948,0c0,-0.136 -0.043,-0.246 -0.131,-0.335c-0.088,-0.088 -0.225,-0.134 -0.41,-0.134c-0.16,0 -0.283,0.035 -0.369,0.108c-0.089,0.072 -0.132,0.163 -0.132,0.275c0,0.105 0.051,0.191 0.15,0.255c0.099,0.064 0.268,0.12 0.504,0.166c0.236,0.048 0.434,0.099 0.597,0.158c0.501,0.185 0.75,0.501 0.75,0.953c0,0.324 -0.139,0.584 -0.415,0.785c-0.276,0.201 -0.635,0.3 -1.074,0.3c-0.297,-0 -0.56,-0.054 -0.793,-0.158c-0.23,-0.107 -0.412,-0.252 -0.543,-0.437c-0.131,-0.184 -0.196,-0.383 -0.196,-0.597l0.897,0c0.009,0.169 0.072,0.297 0.188,0.386c0.115,0.088 0.27,0.134 0.466,0.134c0.182,-0 0.318,-0.035 0.412,-0.105c0.094,-0.069 0.14,-0.158 0.14,-0.27l-0.003,0.002Z" style="fill:#3c1213;fill-rule:nonzero;"/><path d="M84.023,44.755l-0,-2.852l-0.528,-0l0,-0.694l0.528,0l-0,-0.302c-0,-0.397 0.115,-0.707 0.343,-0.927c0.227,-0.22 0.548,-0.329 0.959,-0.329c0.131,-0 0.291,0.021 0.482,0.067l-0.011,0.733c-0.078,-0.018 -0.175,-0.029 -0.289,-0.029c-0.356,-0 -0.537,0.166 -0.537,0.501l0.001,0.284l0.704,-0l0.001,0.693l-0.706,0l0.001,2.852l-0.951,0l0.002,0.003Z" style="fill:#3c1213;fill-rule:nonzero;"/><path d="M86.425,42.95c-0,-0.351 0.067,-0.664 0.204,-0.94c0.136,-0.276 0.329,-0.487 0.583,-0.64c0.255,-0.15 0.549,-0.225 0.887,-0.225c0.479,0 0.868,0.147 1.173,0.439c0.302,0.292 0.471,0.691 0.506,1.192l0.005,0.244c0,0.543 -0.153,0.98 -0.455,1.309c-0.303,0.33 -0.712,0.493 -1.221,0.493c-0.509,-0 -0.919,-0.163 -1.224,-0.493c-0.305,-0.327 -0.458,-0.774 -0.458,-1.336l-0,-0.043Zm0.948,0.067c-0,0.337 0.064,0.594 0.19,0.774c0.126,0.179 0.309,0.268 0.544,0.268c0.236,-0 0.41,-0.089 0.538,-0.265c0.129,-0.177 0.193,-0.458 0.193,-0.847c0,-0.329 -0.064,-0.586 -0.193,-0.768c-0.128,-0.182 -0.311,-0.273 -0.543,-0.273c-0.233,-0 -0.41,0.091 -0.539,0.27c-0.129,0.179 -0.19,0.461 -0.19,0.838l-0,0.003Z" style="fill:#3c1213;fill-rule:nonzero;"/><path d="M92.764,42.098c-0.129,-0.018 -0.244,-0.026 -0.34,-0.026c-0.359,-0 -0.592,0.12 -0.704,0.364l-0,2.319l-0.948,-0l-0,-3.546l0.894,0l0.027,0.423c0.189,-0.326 0.452,-0.487 0.789,-0.487c0.105,0 0.204,0.013 0.295,0.043l-0.013,0.91Z" style="fill:#3c1213;fill-rule:nonzero;"/><path d="M99.641,44.755l-0.983,-0l0,-2.046l-1.917,-0l0,2.046l-0.983,-0l-0,-4.772l0.983,-0l0,1.933l1.917,0l0,-1.933l0.983,-0l0,4.772Z" style="fill:#3c1213;fill-rule:nonzero;"/><path d="M102.475,44.822c-0.52,-0 -0.943,-0.161 -1.27,-0.479c-0.327,-0.319 -0.49,-0.745 -0.49,-1.275l0,-0.091c0,-0.356 0.069,-0.675 0.206,-0.956c0.137,-0.281 0.332,-0.498 0.584,-0.648c0.252,-0.153 0.541,-0.228 0.865,-0.228c0.485,0 0.867,0.153 1.146,0.458c0.279,0.305 0.418,0.739 0.418,1.301l0,0.386l-2.258,0c0.03,0.23 0.124,0.418 0.276,0.557c0.155,0.139 0.348,0.209 0.584,0.209c0.364,-0 0.65,-0.131 0.854,-0.396l0.466,0.522c-0.142,0.201 -0.334,0.359 -0.576,0.471c-0.244,0.113 -0.511,0.169 -0.805,0.169Zm-0.111,-2.914c-0.187,0 -0.339,0.064 -0.457,0.19c-0.119,0.129 -0.194,0.311 -0.225,0.547l1.317,-0l-0,-0.075c-0.005,-0.212 -0.062,-0.375 -0.171,-0.49c-0.11,-0.116 -0.266,-0.174 -0.466,-0.174l0.002,0.002Z" style="fill:#3c1213;fill-rule:nonzero;"/><path d="M106.928,44.755c-0.043,-0.086 -0.075,-0.19 -0.094,-0.319c-0.231,0.255 -0.528,0.383 -0.894,0.383c-0.348,0 -0.635,-0.102 -0.865,-0.302c-0.228,-0.201 -0.343,-0.456 -0.343,-0.761c0,-0.375 0.139,-0.664 0.418,-0.865c0.278,-0.201 0.68,-0.303 1.207,-0.305l0.437,-0l0,-0.204c0,-0.163 -0.043,-0.294 -0.126,-0.393c-0.082,-0.1 -0.217,-0.148 -0.399,-0.148c-0.16,0 -0.283,0.038 -0.375,0.115c-0.091,0.078 -0.136,0.183 -0.136,0.314l-0.948,-0c-0,-0.206 0.064,-0.397 0.19,-0.571c0.125,-0.174 0.305,-0.31 0.538,-0.412c0.23,-0.099 0.492,-0.15 0.779,-0.15c0.437,-0 0.785,0.11 1.042,0.329c0.257,0.22 0.386,0.528 0.386,0.927l0,1.537c0,0.338 0.048,0.592 0.142,0.763l-0,0.057l-0.956,-0l-0.003,0.005Zm-0.785,-0.656c0.14,-0 0.268,-0.032 0.386,-0.094c0.118,-0.062 0.206,-0.145 0.262,-0.252l0,-0.61l-0.353,-0c-0.474,-0 -0.726,0.163 -0.758,0.493l0,0.056c-0.003,0.118 0.038,0.214 0.12,0.292c0.084,0.077 0.196,0.115 0.341,0.115l0.002,-0Z" style="fill:#3c1213;fill-rule:nonzero;"/><rect x="108.923" y="39.72" width="0.95" height="5.035" style="fill:#3c1213;fill-rule:nonzero;"/><path d="M112.19,40.339l0,0.87l0.606,0l-0,0.694l-0.606,-0l0,1.77c0,0.131 0.024,0.225 0.075,0.281c0.051,0.056 0.147,0.086 0.29,0.086c0.104,-0 0.198,-0.008 0.278,-0.024l-0,0.717c-0.184,0.057 -0.378,0.086 -0.573,0.086c-0.665,0 -1.002,-0.335 -1.015,-1.007l0,-1.909l-0.517,-0l-0,-0.694l0.517,0l0,-0.87l0.948,-0l-0.003,-0Z" style="fill:#3c1213;fill-rule:nonzero;"/><path d="M114.651,41.598c0.252,-0.303 0.568,-0.453 0.948,-0.453c0.769,0 1.16,0.447 1.171,1.342l-0,2.271l-0.948,-0l-0,-2.245c-0,-0.203 -0.043,-0.353 -0.132,-0.449c-0.088,-0.097 -0.233,-0.145 -0.436,-0.145c-0.278,-0 -0.479,0.107 -0.603,0.321l0,2.52l-0.948,0l0,-5.034l0.948,-0l0,1.874l0,-0.002Z" style="fill:#3c1213;fill-rule:nonzero;"/><path d="M121.622,44.755c-0.037,-0.072 -0.064,-0.161 -0.08,-0.265c-0.193,0.214 -0.442,0.321 -0.75,0.321c-0.292,0 -0.533,-0.083 -0.723,-0.252c-0.191,-0.168 -0.287,-0.38 -0.287,-0.637c0.001,-0.316 0.118,-0.557 0.352,-0.726c0.232,-0.168 0.569,-0.254 1.011,-0.254l0.365,-0l-0,-0.172c-0,-0.136 -0.035,-0.246 -0.107,-0.329c-0.072,-0.083 -0.183,-0.123 -0.335,-0.123c-0.134,-0 -0.239,0.032 -0.313,0.096c-0.075,0.065 -0.115,0.153 -0.115,0.263l-0.793,-0c0,-0.172 0.053,-0.332 0.158,-0.477c0.105,-0.145 0.257,-0.262 0.45,-0.345c0.192,-0.083 0.412,-0.126 0.653,-0.126c0.367,-0 0.656,0.091 0.873,0.276c0.214,0.184 0.321,0.441 0.321,0.776l0,1.288c0,0.282 0.04,0.496 0.118,0.64l0,0.046l-0.801,-0l0.003,-0Zm-0.656,-0.552c0.118,0 0.225,-0.027 0.324,-0.077c0.099,-0.051 0.172,-0.124 0.22,-0.209l-0,-0.512l-0.297,0c-0.397,0 -0.608,0.137 -0.635,0.413l-0,0.045c-0.003,0.099 0.032,0.18 0.102,0.244c0.069,0.064 0.165,0.096 0.286,0.096Z" style="fill:#3c1213;fill-rule:nonzero;"/><path d="M123.984,41.785l0.024,0.343c0.212,-0.265 0.499,-0.399 0.854,-0.399c0.317,-0 0.549,0.093 0.702,0.278c0.153,0.185 0.233,0.461 0.236,0.83l-0,1.921l-0.793,-0l-0,-1.902c-0,-0.169 -0.037,-0.289 -0.109,-0.367c-0.073,-0.075 -0.196,-0.115 -0.365,-0.115c-0.222,0 -0.391,0.097 -0.503,0.287l-0,2.094l-0.793,-0l-0,-2.97l0.747,-0Z" style="fill:#3c1213;fill-rule:nonzero;"/><path d="M126.617,43.25c-0.001,-0.463 0.104,-0.833 0.31,-1.106c0.209,-0.276 0.493,-0.413 0.852,-0.413c0.289,0 0.527,0.108 0.718,0.325l-0,-1.516l0.795,-0l-0,4.218l-0.718,-0l-0.038,-0.316c-0.197,0.246 -0.452,0.369 -0.762,0.369c-0.351,0 -0.629,-0.136 -0.841,-0.412c-0.212,-0.276 -0.317,-0.659 -0.317,-1.149Zm0.793,0.059c0,0.278 0.048,0.493 0.145,0.64c0.097,0.147 0.238,0.222 0.423,0.222c0.247,0 0.418,-0.104 0.52,-0.311l-0,-1.172c-0.099,-0.207 -0.271,-0.311 -0.515,-0.311c-0.382,-0 -0.573,0.311 -0.573,0.932Z" style="fill:#3c1213;fill-rule:nonzero;"/><path d="M52.473,51.718l0,-4.772l1.468,-0c0.42,-0 0.795,0.093 1.124,0.283c0.332,0.191 0.59,0.458 0.774,0.807c0.185,0.348 0.279,0.744 0.279,1.189l-0,0.219c-0,0.445 -0.091,0.838 -0.273,1.184c-0.182,0.345 -0.44,0.613 -0.772,0.803c-0.332,0.19 -0.707,0.287 -1.124,0.289l-1.479,0l0.003,-0.002Zm0.983,-3.974l-0,3.186l0.474,0c0.386,0 0.678,-0.125 0.881,-0.377c0.204,-0.252 0.308,-0.611 0.311,-1.079l-0,-0.252c-0,-0.485 -0.102,-0.852 -0.303,-1.103c-0.201,-0.249 -0.495,-0.375 -0.881,-0.375l-0.485,-0l0.003,-0Z" style="fill:#3c1213;fill-rule:nonzero;"/><path d="M58.957,51.785c-0.52,-0 -0.943,-0.161 -1.27,-0.48c-0.327,-0.318 -0.49,-0.744 -0.49,-1.274l0,-0.091c0,-0.357 0.07,-0.675 0.206,-0.956c0.137,-0.282 0.332,-0.499 0.584,-0.649c0.252,-0.152 0.541,-0.227 0.865,-0.227c0.485,-0 0.868,0.152 1.146,0.458c0.279,0.305 0.418,0.739 0.418,1.301l0,0.386l-2.257,-0c0.029,0.23 0.123,0.418 0.275,0.557c0.156,0.139 0.349,0.209 0.584,0.209c0.364,-0 0.651,-0.131 0.854,-0.396l0.466,0.522c-0.142,0.201 -0.334,0.359 -0.575,0.471c-0.244,0.113 -0.512,0.169 -0.806,0.169Zm-0.11,-2.914c-0.188,0 -0.34,0.064 -0.458,0.19c-0.118,0.129 -0.193,0.311 -0.225,0.547l1.317,-0l0,-0.075c-0.005,-0.212 -0.061,-0.375 -0.171,-0.491c-0.11,-0.115 -0.265,-0.174 -0.466,-0.174l0.003,0.003Z" style="fill:#3c1213;fill-rule:nonzero;"/><path d="M62.786,50.564l0.659,-2.389l0.991,-0l-1.197,3.545l-0.905,0l-1.198,-3.545l0.991,-0l0.659,2.389Z" style="fill:#3c1213;fill-rule:nonzero;"/><path d="M67.034,51.785c-0.52,-0 -0.943,-0.161 -1.27,-0.48c-0.327,-0.318 -0.49,-0.744 -0.49,-1.274l-0,-0.091c-0,-0.357 0.07,-0.675 0.206,-0.956c0.137,-0.282 0.332,-0.499 0.584,-0.649c0.252,-0.152 0.541,-0.227 0.865,-0.227c0.485,-0 0.868,0.152 1.146,0.458c0.279,0.305 0.418,0.739 0.418,1.301l-0,0.386l-2.258,-0c0.03,0.23 0.124,0.418 0.276,0.557c0.156,0.139 0.348,0.209 0.584,0.209c0.364,-0 0.651,-0.131 0.854,-0.396l0.466,0.522c-0.142,0.201 -0.334,0.359 -0.575,0.471c-0.244,0.113 -0.512,0.169 -0.807,0.169Zm-0.107,-2.914c-0.187,0 -0.34,0.064 -0.458,0.19c-0.117,0.129 -0.192,0.311 -0.225,0.547l1.318,-0l0,-0.075c-0.005,-0.212 -0.062,-0.375 -0.171,-0.491c-0.11,-0.115 -0.265,-0.174 -0.466,-0.174l0.002,0.003Z" style="fill:#3c1213;fill-rule:nonzero;"/><rect x="69.629" y="46.683" width="0.951" height="5.035" style="fill:#3c1213;fill-rule:nonzero;"/><path d="M71.763,49.913c-0,-0.351 0.067,-0.664 0.203,-0.94c0.137,-0.276 0.33,-0.488 0.584,-0.64c0.255,-0.15 0.549,-0.225 0.887,-0.225c0.479,-0 0.867,0.147 1.173,0.439c0.302,0.292 0.471,0.691 0.505,1.192l0.006,0.243c-0,0.544 -0.153,0.981 -0.455,1.31c-0.303,0.329 -0.713,0.493 -1.221,0.493c-0.509,-0 -0.919,-0.164 -1.224,-0.493c-0.306,-0.327 -0.458,-0.774 -0.458,-1.336l-0,-0.043Zm0.948,0.067c-0,0.337 0.064,0.594 0.19,0.774c0.126,0.179 0.308,0.268 0.544,0.268c0.235,-0 0.409,-0.089 0.538,-0.266c0.128,-0.176 0.193,-0.458 0.193,-0.846c-0,-0.329 -0.065,-0.586 -0.193,-0.768c-0.129,-0.183 -0.311,-0.274 -0.544,-0.274c-0.233,0 -0.409,0.091 -0.538,0.271c-0.128,0.179 -0.19,0.461 -0.19,0.838l-0,0.003Z" style="fill:#3c1213;fill-rule:nonzero;"/><path d="M79.449,49.98c0,0.546 -0.124,0.983 -0.373,1.312c-0.249,0.329 -0.583,0.493 -1.004,0.493c-0.358,-0 -0.648,-0.123 -0.868,-0.375l0,1.671l-0.948,-0l0,-4.909l0.879,0l0.032,0.348c0.231,-0.276 0.528,-0.412 0.897,-0.412c0.437,-0 0.777,0.161 1.02,0.485c0.244,0.324 0.365,0.768 0.365,1.336l0,0.051Zm-0.948,-0.07c0,-0.329 -0.059,-0.584 -0.174,-0.763c-0.118,-0.179 -0.286,-0.268 -0.509,-0.268c-0.297,0 -0.501,0.113 -0.614,0.34l0,1.452c0.116,0.233 0.322,0.351 0.619,0.351c0.453,-0 0.678,-0.37 0.678,-1.112Z" style="fill:#3c1213;fill-rule:nonzero;"/><path d="M81.473,48.172l0.029,0.396c0.253,-0.308 0.593,-0.463 1.021,-0.463c0.458,0 0.771,0.18 0.94,0.541c0.249,-0.361 0.605,-0.541 1.066,-0.541c0.385,0 0.669,0.113 0.86,0.335c0.187,0.225 0.281,0.56 0.281,1.012l-0.001,2.266l-0.95,-0l0,-2.261c0,-0.2 -0.04,-0.348 -0.117,-0.441c-0.078,-0.094 -0.218,-0.14 -0.416,-0.14c-0.283,0 -0.479,0.137 -0.589,0.407l0,2.435l-0.942,-0l-0.001,-2.258c0.001,-0.206 -0.04,-0.353 -0.12,-0.444c-0.08,-0.091 -0.22,-0.137 -0.413,-0.137c-0.267,0 -0.462,0.113 -0.583,0.335l-0,2.506l-0.948,0l-0,-3.545l0.888,-0l-0.005,-0.003Z" style="fill:#3c1213;fill-rule:nonzero;"/><path d="M88.578,51.785c-0.52,-0 -0.943,-0.161 -1.269,-0.48c-0.327,-0.318 -0.49,-0.744 -0.49,-1.274l-0.001,-0.091c0.001,-0.357 0.07,-0.675 0.207,-0.956c0.136,-0.282 0.332,-0.499 0.584,-0.649c0.251,-0.152 0.541,-0.227 0.865,-0.227c0.484,-0 0.868,0.152 1.146,0.458c0.279,0.305 0.418,0.739 0.418,1.301l-0.001,0.386l-2.257,-0c0.029,0.23 0.123,0.418 0.276,0.557c0.155,0.139 0.348,0.209 0.584,0.209c0.364,-0 0.651,-0.131 0.854,-0.396l0.466,0.522c-0.142,0.201 -0.335,0.359 -0.576,0.471c-0.243,0.113 -0.511,0.169 -0.806,0.169Zm-0.107,-2.914c-0.188,0 -0.34,0.064 -0.458,0.19c-0.117,0.129 -0.192,0.311 -0.225,0.547l1.318,-0l0,-0.075c-0.006,-0.212 -0.062,-0.375 -0.172,-0.491c-0.109,-0.115 -0.264,-0.174 -0.465,-0.174l0.002,0.003Z" style="fill:#3c1213;fill-rule:nonzero;"/><path d="M91.995,48.172l0.03,0.41c0.254,-0.316 0.594,-0.474 1.02,-0.474c0.375,-0 0.656,0.11 0.838,0.332c0.185,0.219 0.279,0.552 0.282,0.991l-0,2.289l-0.948,0l-0,-2.268c-0,-0.201 -0.044,-0.345 -0.132,-0.436c-0.088,-0.091 -0.233,-0.137 -0.436,-0.137c-0.268,0 -0.466,0.113 -0.6,0.34l0,2.501l-0.948,0l0,-3.545l0.892,-0l0.002,-0.003Z" style="fill:#3c1213;fill-rule:nonzero;"/><path d="M96.567,47.302l0,0.87l0.605,0l0,0.694l-0.605,-0l0,1.77c0,0.131 0.024,0.225 0.075,0.281c0.05,0.056 0.147,0.086 0.289,0.086c0.104,-0 0.198,-0.008 0.279,-0.024l-0,0.717c-0.185,0.057 -0.378,0.086 -0.574,0.086c-0.664,0 -1.001,-0.335 -1.015,-1.007l0,-1.909l-0.517,-0l0,-0.694l0.517,0l0,-0.87l0.948,-0l-0.002,-0Z" style="fill:#3c1213;fill-rule:nonzero;"/><path d="M100.469,47.256c-0.001,-0.142 0.047,-0.26 0.141,-0.351c0.094,-0.091 0.225,-0.136 0.389,-0.136c0.163,-0 0.289,0.045 0.385,0.136c0.097,0.091 0.145,0.209 0.145,0.351c0,0.142 -0.048,0.263 -0.145,0.354c-0.096,0.091 -0.225,0.136 -0.385,0.136c-0.161,0 -0.287,-0.045 -0.386,-0.136c-0.097,-0.091 -0.145,-0.209 -0.145,-0.354Zm1.005,4.462l-0.951,-0l-0,-3.546l0.951,0l-0,3.546Z" style="fill:#3c1213;fill-rule:nonzero;"/><path d="M103.677,48.172l0.029,0.41c0.254,-0.316 0.595,-0.474 1.02,-0.474c0.375,-0 0.656,0.11 0.839,0.332c0.184,0.219 0.278,0.552 0.281,0.991l-0,2.289l-0.948,0l-0,-2.268c-0,-0.201 -0.043,-0.345 -0.131,-0.436c-0.089,-0.091 -0.234,-0.137 -0.437,-0.137c-0.268,0 -0.466,0.113 -0.6,0.34l0,2.501l-0.948,0l0,-3.545l0.892,-0l0.003,-0.003Z" style="fill:#3c1213;fill-rule:nonzero;"/><path d="M112.091,50.735l-1.725,-0l-0.326,0.983l-1.045,-0l1.776,-4.772l0.911,-0l1.785,4.772l-1.044,-0l-0.332,-0.983Zm-1.459,-0.795l1.194,-0l-0.6,-1.787l-0.594,1.787Z" style="fill:#3c1213;fill-rule:nonzero;"/><path d="M114.662,51.718l0,-2.852l-0.528,-0l0,-0.694l0.528,0l0,-0.303c0,-0.396 0.115,-0.707 0.343,-0.926c0.227,-0.22 0.549,-0.33 0.958,-0.33c0.132,0 0.292,0.022 0.483,0.067l-0.011,0.734c-0.078,-0.019 -0.175,-0.029 -0.289,-0.029c-0.357,-0 -0.536,0.166 -0.536,0.5l0,0.284l0.704,0l0.001,0.694l-0.705,-0l0,2.852l-0.951,0l0.003,0.003Z" style="fill:#3c1213;fill-rule:nonzero;"/><path d="M119.351,49.061c-0.128,-0.018 -0.243,-0.027 -0.34,-0.027c-0.359,0 -0.592,0.121 -0.704,0.365l-0.001,2.319l-0.947,-0l-0,-3.546l0.894,0l0.027,0.423c0.19,-0.326 0.453,-0.487 0.79,-0.487c0.104,-0 0.203,0.013 0.295,0.043l-0.014,0.91Z" style="fill:#3c1213;fill-rule:nonzero;"/><path d="M120.35,47.256c0,-0.142 0.048,-0.26 0.142,-0.351c0.094,-0.091 0.225,-0.136 0.389,-0.136c0.163,-0 0.289,0.045 0.385,0.136c0.097,0.091 0.145,0.209 0.145,0.351c-0,0.142 -0.048,0.263 -0.145,0.354c-0.096,0.091 -0.225,0.136 -0.385,0.136c-0.161,0 -0.287,-0.045 -0.386,-0.136c-0.097,-0.091 -0.145,-0.209 -0.145,-0.354Zm1.007,4.462l-0.951,-0l0,-3.546l0.951,0l-0,3.546Z" style="fill:#3c1213;fill-rule:nonzero;"/><path d="M124.161,51.022c0.174,-0 0.316,-0.049 0.426,-0.145c0.109,-0.097 0.166,-0.225 0.171,-0.383l0.889,-0c0.001,0.241 -0.067,0.461 -0.195,0.661c-0.129,0.201 -0.306,0.357 -0.531,0.466c-0.225,0.11 -0.471,0.166 -0.741,0.166c-0.507,0 -0.909,-0.16 -1.2,-0.484c-0.292,-0.322 -0.439,-0.769 -0.439,-1.337l-0,-0.061c-0,-0.547 0.145,-0.983 0.436,-1.307c0.289,-0.327 0.688,-0.488 1.197,-0.488c0.445,0 0.798,0.126 1.066,0.378c0.268,0.252 0.404,0.589 0.407,1.007l-0.889,0c-0.005,-0.185 -0.062,-0.335 -0.171,-0.45c-0.11,-0.115 -0.255,-0.174 -0.434,-0.174c-0.22,0 -0.388,0.08 -0.501,0.241c-0.112,0.161 -0.168,0.423 -0.168,0.782l-0,0.099c-0,0.364 0.056,0.629 0.166,0.787c0.112,0.161 0.281,0.242 0.508,0.242l0.003,-0Z" style="fill:#3c1213;fill-rule:nonzero;"/><path d="M128.792,51.718c-0.043,-0.086 -0.076,-0.19 -0.094,-0.319c-0.231,0.254 -0.528,0.383 -0.895,0.383c-0.348,0 -0.635,-0.102 -0.865,-0.303c-0.228,-0.2 -0.343,-0.455 -0.343,-0.76c0.001,-0.375 0.139,-0.664 0.418,-0.865c0.278,-0.201 0.68,-0.303 1.208,-0.305l0.436,-0l0,-0.204c0,-0.163 -0.043,-0.295 -0.126,-0.394c-0.082,-0.099 -0.217,-0.147 -0.399,-0.147c-0.16,0 -0.283,0.038 -0.375,0.115c-0.091,0.078 -0.136,0.182 -0.136,0.314l-0.948,-0c-0,-0.207 0.064,-0.397 0.19,-0.571c0.126,-0.174 0.305,-0.31 0.538,-0.412c0.231,-0.099 0.493,-0.15 0.78,-0.15c0.436,-0 0.784,0.11 1.042,0.329c0.256,0.22 0.385,0.528 0.385,0.927l0,1.537c0,0.337 0.048,0.592 0.142,0.763l-0,0.056l-0.956,0l-0.003,0.006Zm-0.782,-0.656c0.14,-0 0.268,-0.032 0.386,-0.094c0.117,-0.062 0.206,-0.145 0.262,-0.252l0,-0.61l-0.353,-0c-0.474,-0 -0.726,0.163 -0.758,0.492l-0,0.057c-0.003,0.117 0.037,0.214 0.12,0.292c0.084,0.077 0.196,0.115 0.34,0.115l0.003,-0Z" style="fill:#3c1213;fill-rule:nonzero;"/><path d="M71.404,36.997l-2.062,-0l-0,-4.293l-4.022,-0l-0,4.293l-2.063,-0l0,-10.013l2.063,-0l-0,4.057l4.022,-0l-0,-4.057l2.062,-0l0,10.013Z" style="fill:#3c1213;fill-rule:nonzero;"/><path d="M75.584,36.997l0,-10.013l3.083,-0c0.881,-0 1.668,0.198 2.361,0.594c0.694,0.396 1.238,0.962 1.626,1.693c0.391,0.731 0.584,1.561 0.584,2.493l-0,0.461c-0,0.931 -0.19,1.759 -0.573,2.482c-0.383,0.726 -0.924,1.285 -1.62,1.685c-0.697,0.399 -1.484,0.599 -2.36,0.605l-3.101,-0Zm2.065,-8.342l-0,6.684l0.996,0c0.806,0 1.425,-0.262 1.851,-0.79c0.426,-0.528 0.645,-1.283 0.653,-2.263l0,-0.53c0,-1.018 -0.211,-1.789 -0.632,-2.314c-0.42,-0.525 -1.039,-0.787 -1.85,-0.787l-1.018,-0Z" style="fill:#3c1213;fill-rule:nonzero;"/><path d="M92.199,34.932l-3.621,0l-0.688,2.062l-2.194,0l3.729,-10.013l1.912,-0l3.749,10.013l-2.193,0l-0.694,-2.062Zm-3.064,-1.671l2.504,-0l-1.259,-3.749l-1.245,3.749Z" style="fill:#3c1213;fill-rule:nonzero;"/><path d="M51.402,18.92c-0.335,0.991 -0.753,1.936 -1.224,2.828c-2.724,5.193 -7.177,8.583 -7.177,8.583l-0,2.89l0.257,0.142l-0.037,0.581l0.399,0.284l0.091,1.446l0.013,0.696l0.362,0.581l0.334,0.737l-0.219,0.72l-0.362,0.453l0.064,0.774l0.233,0.425l-0.05,0.622l-0.48,0.656l-1.51,1.189l-2.67,1.896l-0.078,0.892l0.155,0.966l-0.131,1.007l-0.308,0.683l-0.581,0.311l-0.645,0.128l-0.541,0.274l-0,0.605l-0.284,0.942l-0.453,0.504l-0.696,0.696l-0.736,0.53l-0.97,0.606l-2.271,0.969l-0.675,0.204l-0.873,0.259l-1.47,0l-2.383,-0.321l-0.065,-0.426l-0.393,-0.677l-0.638,-1.227l-0.723,-0.613l-0.522,-1.331l-0,-1.119l-0.316,-0.426l0.011,-1.125l-0.244,-0.702l-0.388,-0.126l0.01,-0.701l-0.46,-0.364l-0.006,-0.541l-0.851,-0.79l-0.022,-2.933l0.389,-0.016l-0.006,-1.044l0.228,-0.568l0.434,-0.252l0.38,-0.262l0.011,-1.05l-0.281,-0.388l-0.105,-0.375l-0.42,-0.359l0.005,-2.11l-0.632,-1.034l-0.203,-0.493l-0.193,-0.284l-0.153,-0.369l-0.442,-0.354l-0.618,-0.774l-0.724,-1.186l-3.457,-5.525l-0.209,-0.514l-0.152,-0.466l-0.93,-0.104l-1.138,0.155l-4.619,1.058l-0.284,-0l-0.683,-0.024c-0,-0 -0.621,0.257 -0.659,0.27c-0.037,0.013 -0.645,0.193 -0.645,0.193l-1.122,-0.193l-0.686,-0.206l-1.2,-1.085l-0.747,-0.348l-0.659,-0.605l-0.192,-1.267l-0.338,-0.527l-0.412,-0.531l-0.413,-0.219l-0.736,-0.696l-0,-3.64l0.98,-1.368l-0,-3.343l2.014,-1.703l-0,-0.8l1.537,-1.808l1.109,-0l1.574,-1.379c0,-0 0.051,-0.581 0.051,-1.28c0.723,-0.863 2.724,-1.859 2.724,-1.859l0.324,-0.669l1.109,0.064l0.618,0.27l1.071,0l1.331,-0.811l1.768,-0.131l0.155,-0.298l4.505,0c0.037,0 0.064,0.557 0.064,0.557c-0,0 0.321,0.308 0.399,0.362c0.078,0.051 -0.193,0.45 -0.193,0.45l-0.554,0.452l0.233,0.375c-0,0 0.514,0.193 0.605,0.22c0.091,0.024 0.554,0.308 0.581,0.348c0.027,0.038 1.484,0.102 1.484,0.102l1.122,0.685l0.067,0.271l0.709,0.064l0.426,0.247l10.479,1.044l0.44,0.594l0.54,0.774l0.801,1.214l2.659,4.413l0.231,0.645l0.543,0.673l0.413,0.696l0.801,0.825l0.077,0.49l0.439,0.492l0.49,0.207l0.592,0.49l0.75,0.747l0.672,0.774l0.207,0.929l0.439,0.493l0.875,0.024l0.879,-0.102l0.463,-0.104l0.182,-0.233l0.879,-0.024l0.101,-0.338c0,0 0.44,-0.075 1.369,-0.206Z" style="fill:#3c1213;fill-rule:nonzero;"/><path d="M21.138,0.27c0.037,0 0.064,0.555 0.064,0.555c-0,-0 0.321,0.31 0.399,0.361c0.078,0.051 -0.193,0.453 -0.193,0.453l-0.554,0.453l0.233,0.374c-0,0 0.517,0.193 0.608,0.22c0.091,0.027 0.554,0.311 0.581,0.348c0.027,0.038 1.483,0.105 1.483,0.105l1.122,0.683l0.065,0.27l0.709,0.064l0.426,0.247l10.479,1.044l0.44,0.595l0.541,0.774l0.8,1.213l2.659,4.413l0.233,0.646l0.541,0.672l0.413,0.696l0.801,0.825l0.077,0.49l0.439,0.49l0.49,0.206l0.595,0.49l0.75,0.75l0.672,0.774l0.206,0.929l0.439,0.49l0.879,0.027l0.878,-0.104l0.464,-0.105l0.179,-0.233l0.878,-0.027l0.105,-0.334c-0,-0 0.439,-0.078 1.368,-0.207c-2.284,6.757 -8.401,11.409 -8.401,11.409l0,2.892l0.257,0.142l-0.037,0.581l0.399,0.284l0.091,1.446l0.013,0.697l0.362,0.581l0.335,0.736l-0.22,0.723l-0.361,0.453l0.064,0.774l0.233,0.426l-0.051,0.618l-0.477,0.659l-1.51,1.186l-2.673,1.896l-0.078,0.892l0.156,0.967l-0.129,1.007l-0.31,0.683l-0.581,0.31l-0.646,0.129l-0.541,0.27l0,0.608l-0.284,0.943l-0.452,0.503l-0.697,0.697l-0.736,0.53l-0.967,0.608l-2.271,0.967l-1.548,0.463l-1.47,-0l-2.381,-0.322l-0.064,-0.425l-0.394,-0.678l-0.64,-1.226l-0.723,-0.614l-0.522,-1.328l0,-1.119l-0.316,-0.426l0.013,-1.125l-0.246,-0.699l-0.388,-0.126l0.01,-0.704l-0.46,-0.364l-0,-0.539l-0.854,-0.79l-0.022,-2.932l0.388,-0.016l0,-1.044l0.223,-0.568l0.436,-0.252l0.381,-0.262l0.01,-1.05l-0.281,-0.391l-0.107,-0.375l-0.421,-0.359l0.006,-2.11l-0.632,-1.037l-0.204,-0.49l-0.193,-0.284l-0.152,-0.372l-0.442,-0.351l-0.619,-0.774l-0.723,-1.186l-3.46,-5.525l-0.206,-0.517l-0.155,-0.463l-0.93,-0.104l-1.135,0.155l-4.62,1.058l-0.283,-0l-0.683,-0.027c-0,0 -0.619,0.257 -0.659,0.271c-0.038,0.013 -0.646,0.192 -0.646,0.192l-1.122,-0.192l-0.683,-0.207l-1.199,-1.084l-0.75,-0.348l-0.659,-0.606l-0.193,-1.264l-0.335,-0.53l-0.412,-0.53l-0.412,-0.22l-0.737,-0.696l0,-3.639l0.98,-1.369l0,-3.342l2.014,-1.703l0,-0.801l1.535,-1.808l1.108,0l1.575,-1.382c0,0 0.051,-0.581 0.051,-1.277c0.723,-0.865 2.723,-1.859 2.723,-1.859l0.322,-0.672l1.109,0.065l0.618,0.27l1.071,0l1.329,-0.814l1.767,-0.129l0.156,-0.297l4.504,0m-0.005,-0.262l-4.668,-0l-0.075,0.144l-0.086,0.164l-1.62,0.117l-0.064,0.006l-0.057,0.035l-1.264,0.774l-0.94,-0l-0.567,-0.249l-0.043,-0.019l-0.048,-0l-1.109,-0.067l-0.18,-0.011l-0.077,0.161l-0.284,0.589c-0.396,0.204 -2.054,1.079 -2.726,1.885l-0.062,0.075l0,0.097c0,0.503 -0.027,0.95 -0.043,1.149l-1.416,1.242l-1.133,0l-0.081,0.094l-1.534,1.808l-0.064,0.075l-0,0.774l-1.918,1.622l-0.093,0.081l-0,3.379l-0.935,1.299l-0.051,0.07l-0,3.84l0.083,0.08l0.736,0.697l0.027,0.024l0.032,0.016l0.362,0.193l0.369,0.474l0.298,0.471l0.185,1.211l0.013,0.093l0.07,0.065l0.658,0.605l0.03,0.029l0.037,0.019l0.713,0.332l1.17,1.058l0.045,0.04l0.057,0.016l0.683,0.206l0.016,0.006l0.016,-0l1.122,0.195l0.061,0.011l0.059,-0.019c0.142,-0.043 0.614,-0.182 0.654,-0.195c0.029,-0.011 0.241,-0.097 0.621,-0.255l0.624,0.024l0.324,0l0.03,-0.008l4.608,-1.055l1.09,-0.15l0.726,0.081l0.102,0.302l-0,0.008l0.005,0.008l0.206,0.517l0.008,0.021l0.014,0.022l3.46,5.525l0.72,1.183l0.008,0.014l0.011,0.013l0.619,0.774l0.018,0.024l0.024,0.019l0.389,0.308l0.126,0.305l0.01,0.027l0.016,0.024l0.177,0.263l0.193,0.466l0.008,0.018l0.011,0.019l0.592,0.972l-0.006,2.035l0,0.124l0.094,0.08l0.359,0.305l0.083,0.297l0.013,0.046l0.027,0.037l0.23,0.319l-0.008,0.822l-0.257,0.177l-0.426,0.246l-0.08,0.046l-0.035,0.086l-0.225,0.567l-0.018,0.049l-0,0.838l-0.129,0.005l-0.26,0.011l0,0.26l0.024,2.932l0,0.115l0.086,0.078l0.766,0.712l-0,0.423l0.003,0.129l0.101,0.08l0.359,0.284l-0.008,0.571l0,0.198l0.185,0.061l0.26,0.086l0.185,0.53l-0.014,1.08l0,0.091l0.054,0.072l0.262,0.353l0,1.082l0.019,0.049l0.522,1.328l0.024,0.061l0.051,0.043l0.683,0.579l0.613,1.178l0.375,0.645l0.056,0.375l0.03,0.199l0.198,0.026l2.381,0.322l1.548,-0l0.037,-0.011l1.548,-0.466l0.027,-0.011l2.271,-0.966l0.019,-0.009l0.018,-0.01l0.967,-0.605l0.016,-0.011l0.737,-0.53l0.018,-0.014l0.723,-0.723l0.453,-0.503l0.04,-0.046l0.016,-0.056l0.284,-0.943l0.011,-0.037l-0,-0.48l0.361,-0.182l0.611,-0.123l0.037,-0.008l0.035,-0.019l0.581,-0.31l0.081,-0.043l0.037,-0.083l0.311,-0.683l0.016,-0.038l0.005,-0.04l0.129,-1.007l0.005,-0.037l-0.005,-0.038l-0.15,-0.934l0.064,-0.734l2.571,-1.827l1.521,-1.194l0.03,-0.024l0.021,-0.029l0.477,-0.659l0.043,-0.062l0.005,-0.075l0.051,-0.618l0.005,-0.081l-0.037,-0.069l-0.207,-0.378l-0.05,-0.611l0.294,-0.369l0.032,-0.04l0.016,-0.049l0.22,-0.723l0.029,-0.096l-0.042,-0.091l-0.335,-0.737l-0.008,-0.016l-0.008,-0.013l-0.322,-0.517l-0.01,-0.624l-0.091,-1.457l-0.008,-0.128l-0.105,-0.075l-0.278,-0.198l0.029,-0.432l0.011,-0.171l-0.15,-0.083l-0.121,-0.067l0,-2.603c0.828,-0.661 6.27,-5.187 8.388,-11.454l0.139,-0.41l-0.428,0.059c-0.924,0.129 -1.361,0.204 -1.377,0.209l-0.161,0.03l-0.048,0.155l-0.045,0.153l-0.686,0.021l-0.126,0l-0.077,0.105l-0.121,0.155l-0.356,0.08l-0.844,0.099l-0.741,-0.021l-0.316,-0.354l-0.191,-0.859l-0.013,-0.067l-0.045,-0.051l-0.673,-0.774l-0.005,-0.008l-0.766,-0.766l-0.011,-0.008l-0.594,-0.49l-0.03,-0.024l-0.037,-0.016l-0.434,-0.182l-0.345,-0.386l-0.065,-0.412l-0.013,-0.083l-0.059,-0.062l-0.779,-0.803l-0.397,-0.67l-0.01,-0.016l-0.014,-0.016l-0.514,-0.637l-0.217,-0.603l-0.008,-0.024l-0.013,-0.022l-2.66,-4.413l-0.806,-1.221l-0.546,-0.779l-0.442,-0.6l-0.069,-0.097l-0.118,-0.01l-10.423,-1.039l-0.375,-0.217l-0.051,-0.03l-0.059,-0.005l-0.517,-0.048l-0.018,-0.083l-0.027,-0.11l-0.097,-0.059l-1.122,-0.683l-0.059,-0.035l-0.069,0c-0.565,-0.027 -1.197,-0.064 -1.379,-0.088c-0.191,-0.145 -0.552,-0.338 -0.624,-0.356c-0.046,-0.014 -0.276,-0.097 -0.501,-0.182l-0.059,-0.097l0.372,-0.303l0.03,-0.024l0.021,-0.032c0.289,-0.426 0.26,-0.57 0.246,-0.632c-0.016,-0.08 -0.061,-0.147 -0.126,-0.193c-0.032,-0.024 -0.163,-0.142 -0.286,-0.259c-0.021,-0.456 -0.054,-0.702 -0.327,-0.702l0.014,0.003Z" style="fill:#3c1213;fill-rule:nonzero;"/><path d="M12.549,32.763c-0.637,-1.733 -3.91,-9.673 10.819,-21.138c10.016,-7.796 22.509,-8.363 25.297,-3.768c-1.845,-5.292 -11.526,-11.06 -27,-0.723c-18.789,12.552 -10.857,24.509 -9.116,25.629Z" style="fill:#fff;fill-rule:nonzero;stroke:#3c1213;stroke-width:0.27px;"/><path d="M20.723,39.774c-4.336,-2.633 -4.883,-12.164 7.394,-21.373c13.009,-9.756 21.566,-6.195 23.239,-2.247c0.533,-5.383 -3.797,-8.693 -9.689,-8.441c-15.409,0.658 -39.415,25.593 -20.947,32.058l0.003,0.003Z" style="fill:#fcb316;fill-rule:nonzero;stroke:#3c1213;stroke-width:0.27px;"/><path d="M34.94,30.015c2.358,0 4.269,-1.911 4.269,-4.269c-0,-2.357 -1.911,-4.268 -4.269,-4.268c-2.357,-0 -4.269,1.911 -4.269,4.268c0,2.358 1.912,4.269 4.269,4.269Z" style="fill:#fff;fill-rule:nonzero;"/><path d="M43.001,30.331l-0,2.89l0.257,0.142l-0.037,0.581l0.399,0.284l0.091,1.446l0.013,0.696l0.362,0.581l0.334,0.737l-0.219,0.72l-0.362,0.453l0.064,0.774l0.233,0.425l-0.05,0.622l-0.48,0.656l-1.51,1.189l-2.67,1.896l-0.078,0.892l0.155,0.966l-0.131,1.007l-0.308,0.683l-0.581,0.311l-0.645,0.128l-0.541,0.274l-0,0.605l-0.284,0.942l-0.453,0.504l-0.696,0.696l-0.736,0.531l-0.97,0.605l-2.271,0.969l-0.675,0.204c-0.024,-0.008 -0.051,-0.016 -0.075,-0.027c4.066,-3.91 5.498,-5.383 5.343,-11.81c-0.126,-5.206 -1.181,-6.668 -1.315,-6.891c0,0 -5.383,4.299 -10.525,4.408c0,0 6.535,-3.363 8.53,-7.699c3.717,0.367 6.968,-1.703 7.434,-4.936c2.941,-0.224 7.456,-2.836 9.574,-5.037c-2.723,5.193 -7.177,8.583 -7.177,8.583Z" style="fill:#fcb316;fill-rule:nonzero;"/></g></svg>