<svg width="72" height="100" viewBox="0 0 72 100" fill="none" xmlns="http://www.w3.org/2000/svg">
<g clip-path="url(#clip0_199_8408)">
<path d="M55.4066 69.3485C58.1773 68.4442 60.1828 65.8126 60.1828 62.7058C60.1828 60.6306 59.2786 58.683 57.7135 57.373C58.0034 56.8166 58.1657 56.1906 58.1657 55.553C58.1657 55.3327 58.1425 55.124 58.1077 54.9038C59.3481 54.243 60.1712 52.9214 60.1712 51.4607C60.1712 49.5595 58.8149 47.9712 57.0412 47.6235C57.4701 46.7656 57.8411 45.815 58.1657 44.8296C58.8496 42.6965 59.1858 40.575 59.1047 38.8593C59.0467 37.5609 58.7685 36.703 58.3975 36.1465C60.2408 35.1611 61.5044 33.2135 61.5044 30.9761C61.5044 29.782 61.1334 28.6112 60.4379 27.6258C61.1334 26.6404 61.5044 25.4695 61.5044 24.2754C61.5044 22.2351 60.4263 20.3571 58.7221 19.3137C59.4409 18.3283 59.8234 17.1458 59.8234 15.9054C59.8234 12.671 57.1919 10.0394 53.9575 10.0394C53.6676 10.0394 53.3662 10.0626 53.0764 10.109C52.7054 7.23394 50.2361 5.00811 47.2684 5.00811C46.9786 5.00811 46.6771 5.03129 46.3873 5.07766C46.0163 2.20264 43.5471 -0.0231934 40.5793 -0.0231934C38.9795 -0.0231934 37.484 0.626007 36.3943 1.73892C35.3046 0.614414 33.7975 -0.0231934 32.2093 -0.0231934C29.8791 -0.0231934 27.7808 1.37954 26.8649 3.48944C26.4244 3.38511 25.9723 3.32714 25.5086 3.32714C22.2742 3.32714 19.6426 5.95872 19.6426 9.19313C19.6426 9.47136 19.6658 9.76118 19.7122 10.0742C19.1905 10.5959 18.7731 11.1987 18.4717 11.8711C18.0312 11.7667 17.5791 11.7088 17.1154 11.7088C13.8809 11.7088 11.2494 14.3404 11.2494 17.5748C11.2494 19.0587 11.7942 20.4382 12.7796 21.5047C11.8058 22.4438 11.2494 23.7306 11.2494 25.1101C11.2494 25.9216 11.4464 26.7215 11.829 27.4403C11.4464 28.2982 11.2494 29.2024 11.2494 30.1414C11.2494 32.8889 12.9071 35.2423 15.2721 36.2856C14.9475 36.8421 14.704 37.6652 14.6461 38.8708C14.5649 40.5866 14.9011 42.7081 15.5851 44.8412C15.8981 45.8266 16.2807 46.754 16.698 47.6119C14.8432 47.8901 13.4288 49.5131 13.4288 51.4723C13.4288 52.933 14.2403 54.2546 15.4924 54.9154C15.4576 55.124 15.4344 55.3443 15.4344 55.5646C15.4344 56.2022 15.5967 56.8166 15.8865 57.3846C14.3331 58.7062 13.4172 60.6422 13.4172 62.7174C13.4172 65.6272 15.1793 68.1196 17.6834 69.163C13.765 71.4352 10.4031 74.3334 7.74832 77.7533C3.13436 83.7004 0.804199 90.9112 0.804199 99.1653C0.804199 99.629 1.17517 100 1.63889 100H71.0917C71.5554 100 71.9264 99.629 71.9264 99.1653C71.9264 90.9112 69.5846 83.712 64.9823 77.7649C62.4087 74.4377 59.1511 71.6091 55.3718 69.3601L55.4066 69.3485ZM63.6955 78.785C66.0604 81.8456 67.7993 85.2539 68.9007 88.9868C66.2111 89.4389 63.5448 89.7751 60.9016 89.9953C60.8784 89.8562 60.8204 89.7171 60.7277 89.5896L54.3864 81.776V70.6816C58.0613 72.8379 61.2146 75.5622 63.7071 78.7735L63.6955 78.785ZM53.2735 83.7004C53.3546 83.7236 53.4474 83.7468 53.5401 83.7468C53.6213 83.7468 53.714 83.7352 53.7836 83.7004L59.0003 90.1113C55.2559 90.3431 51.5693 90.3315 47.9408 90.0881L53.2735 83.6888V83.7004ZM56.334 49.2465C57.5396 49.2465 58.5135 50.2434 58.5135 51.4723C58.5135 52.4693 57.8527 53.3503 56.902 53.617C56.6702 53.6749 56.4847 53.8372 56.3688 54.0459C56.2644 54.2546 56.2528 54.5096 56.334 54.7299C56.4383 55.0081 56.4963 55.2863 56.4963 55.5646C56.4963 56.2485 56.1949 56.7354 55.9398 57.0253C55.7775 57.2107 55.708 57.4542 55.7428 57.6861C55.7775 57.9295 55.9051 58.1382 56.1137 58.2657C57.6092 59.2511 58.5019 60.9089 58.5019 62.7058C58.5019 65.6272 56.1717 68.0037 53.3083 68.0037C53.2039 68.0037 53.1112 68.0269 53.03 68.0501C51.2447 67.1574 49.3667 66.3807 47.3959 65.7431C46.8047 65.546 45.8888 64.9432 44.7643 61.9754C45.0425 61.7551 45.3092 61.5233 45.5874 61.2798C48.3813 58.799 50.8969 55.5646 52.7054 52.1447C53.6213 52.0287 54.5951 51.3332 55.5457 50.1043C55.7543 49.8377 55.963 49.5363 56.1601 49.2233C56.2181 49.2349 56.2644 49.2465 56.3224 49.2465H56.334ZM12.9535 30.153C12.9535 29.3415 13.1506 28.5532 13.5448 27.8113C13.6839 27.5446 13.6723 27.2084 13.51 26.9534C13.1506 26.4085 12.9535 25.7709 12.9535 25.1217C12.9535 23.9624 13.5448 22.8959 14.5533 22.2815C14.7852 22.1424 14.9359 21.8873 14.9475 21.6091C14.9591 21.3309 14.8316 21.0642 14.6113 20.9019C13.5563 20.102 12.9535 18.8964 12.9535 17.5864C12.9535 15.2794 14.8316 13.4013 17.1385 13.4013C17.6602 13.4013 18.1819 13.5057 18.692 13.7028C18.9122 13.7955 19.1673 13.7839 19.376 13.6796C19.5962 13.5752 19.7469 13.3782 19.8165 13.1463C20.0368 12.3232 20.5121 11.5929 21.1729 11.0364C21.4163 10.8277 21.5322 10.5031 21.4511 10.1901C21.3583 9.81914 21.3236 9.50614 21.3236 9.20472C21.3236 6.89774 23.2016 5.0197 25.5086 5.0197C26.0303 5.0197 26.5519 5.12404 27.062 5.33271C27.2823 5.42545 27.5373 5.41386 27.746 5.30952C27.9663 5.20519 28.117 5.00811 28.1865 4.77625C28.685 2.95617 30.3312 1.68096 32.2093 1.68096C33.612 1.68096 34.922 2.38812 35.6987 3.559C35.8494 3.79086 36.116 3.92997 36.3943 3.92997C36.6725 3.92997 36.9391 3.79086 37.0898 3.559C37.8666 2.37653 39.1766 1.68096 40.5793 1.68096C42.8863 1.68096 44.7643 3.559 44.7643 5.86598C44.7643 5.88916 44.7643 5.91235 44.7643 5.93554C44.7643 6.00509 44.7527 6.06306 44.7411 6.13261C44.7295 6.41084 44.8455 6.68907 45.0773 6.85137C45.3092 7.01367 45.599 7.06004 45.8656 6.9673C46.3641 6.79341 46.8278 6.70066 47.2916 6.70066C49.5985 6.70066 51.4766 8.57871 51.4766 10.8857C51.4766 10.9089 51.4766 10.9321 51.4766 10.9552C51.4766 11.0248 51.465 11.0828 51.4534 11.1523C51.4418 11.4306 51.5577 11.7088 51.7896 11.8711C52.0215 12.0334 52.3113 12.0798 52.5779 11.987C53.0764 11.8015 53.5401 11.7204 54.0038 11.7204C56.3108 11.7204 58.1889 13.5984 58.1889 15.9054C58.1889 17.0647 57.7135 18.1544 56.8325 18.9659C56.6238 19.163 56.5195 19.4528 56.5774 19.7426C56.6354 20.0325 56.8325 20.2643 57.1107 20.3686C58.7569 20.9715 59.8582 22.5481 59.8582 24.287C59.8582 25.3072 59.4757 26.2926 58.7685 27.0809C58.4787 27.3939 58.4787 27.8808 58.7685 28.2054C59.4757 28.9821 59.8582 29.9791 59.8582 30.9993C59.8582 33.3063 57.9802 35.1843 55.6732 35.1843C53.9111 35.1843 52.3229 34.0482 51.7316 32.3673C51.6157 32.0311 51.2911 31.7992 50.9433 31.7992C50.9317 31.7992 50.9085 31.7992 50.8969 31.7992C50.8274 31.7992 50.7694 31.7992 50.6999 31.8224C50.6767 31.8224 50.6651 31.8224 50.6419 31.8224C49.9231 31.8224 49.216 31.6253 48.5552 31.2427C48.3001 31.092 47.9755 31.092 47.7089 31.2427C47.0481 31.6253 46.341 31.8224 45.6222 31.8224C43.3152 31.8224 41.4372 29.9443 41.4372 27.6374C41.4372 27.1737 41.5299 26.7099 41.7038 26.2114C41.7965 25.9448 41.7502 25.655 41.5879 25.4231C41.414 25.2029 41.1473 25.0753 40.8691 25.0869C40.7996 25.0869 40.73 25.0985 40.672 25.1101C40.6489 25.1101 40.6257 25.1101 40.6025 25.1101C40.1388 25.1101 39.7678 25.4811 39.7678 25.9448C39.7678 28.2518 37.8898 30.1298 35.5828 30.1298C34.1453 30.1298 32.8237 29.3995 32.0585 28.1706C31.8151 27.7881 31.3282 27.6721 30.934 27.8924C30.2732 28.2634 29.5893 28.4489 28.8821 28.4489C28.9053 28.4489 28.9401 28.4489 28.9517 28.4489C28.7082 28.4257 28.4416 28.5184 28.2677 28.6807C28.0938 28.8546 27.9779 29.0981 28.001 29.3415C28.001 29.4111 28.0126 29.4806 28.0242 29.5502C28.0242 29.6082 28.0358 29.6661 28.0358 29.7009C28.0358 32.2397 25.9723 34.3033 23.4335 34.3033C22.9002 34.3033 22.3553 34.1989 21.8105 33.9903C21.5438 33.8859 21.2424 33.9323 21.0106 34.1062C20.1179 34.7786 19.0745 35.1379 17.9964 35.1379C15.2257 35.1379 12.9651 32.8889 12.9651 30.1182L12.9535 30.153ZM16.3386 38.952C16.3966 37.6304 16.756 36.9117 17.0574 36.8189C17.0806 36.8189 17.0922 36.8073 17.1154 36.7957C17.3936 36.8305 17.6834 36.8537 17.9732 36.8537C19.2716 36.8537 20.5352 36.4711 21.625 35.7408C22.2162 35.9263 22.819 36.019 23.4103 36.019C26.749 36.019 29.4965 33.399 29.682 30.0951C30.1457 30.0255 30.6094 29.898 31.05 29.7125C32.1629 31.0573 33.7975 31.834 35.548 31.834C37.2985 31.834 39.0143 30.9877 40.0924 29.6661C40.9155 31.9035 43.0718 33.5034 45.599 33.5034C46.4685 33.5034 47.3147 33.3063 48.1147 32.9121C48.8334 33.2599 49.5985 33.457 50.3753 33.4918C51.3375 35.5205 53.3894 36.8537 55.65 36.8537C55.9746 36.8537 56.2992 36.8305 56.6006 36.7725C56.6354 36.7841 56.6702 36.8073 56.705 36.8189C57.0064 36.9117 57.3658 37.6304 57.4237 38.952C57.4933 40.4707 57.1919 42.3835 56.5543 44.3311C55.1631 48.632 53.0648 50.626 52.3229 50.4869C51.9635 50.4173 51.5925 50.6028 51.4186 50.9274C49.4015 54.9038 46.4801 58.4628 43.5239 60.8277C43.5007 60.8277 43.4659 60.8277 43.4427 60.8509C43.2341 60.9205 43.0718 61.0712 42.979 61.2567C40.8227 62.8797 38.6665 63.8419 36.8696 63.8419C32.4527 63.8419 25.9143 58.0454 22.309 50.9274C22.1351 50.5912 21.7757 50.4173 21.4047 50.4869C20.6744 50.626 18.5645 48.632 17.1733 44.3311C16.5473 42.3835 16.2343 40.4707 16.3039 38.952H16.3386ZM15.133 62.7174C15.133 60.9205 16.0256 59.2627 17.5211 58.2773C17.7182 58.1498 17.8573 57.9295 17.8921 57.6976C17.9269 57.4658 17.8573 57.2223 17.695 57.0369C17.44 56.747 17.1385 56.2485 17.1385 55.5762C17.1385 55.2979 17.1965 55.0197 17.3008 54.7415C17.3936 54.5212 17.382 54.2778 17.2661 54.0575C17.1617 53.8488 16.9646 53.6865 16.7328 53.6286C15.7822 53.3619 15.1214 52.4809 15.1214 51.4839C15.1214 50.255 16.0952 49.258 17.3008 49.258C17.4052 49.258 17.5095 49.2349 17.6023 49.2001C17.8109 49.5247 18.0196 49.8377 18.2399 50.1159C19.1905 51.3448 20.1643 52.0403 21.0801 52.1563C22.8886 55.5877 25.4042 58.8106 28.1981 61.303C28.2561 61.361 28.3141 61.4074 28.3836 61.4537C27.491 63.9578 26.494 65.4069 25.4042 65.7547C23.4798 66.3807 21.6482 67.1226 19.8976 67.9921C17.2313 67.7718 15.1214 65.488 15.1214 62.7174H15.133ZM20.2686 69.6847C20.2686 69.6847 20.3034 69.6847 20.315 69.6847C20.6048 69.6847 20.8598 69.534 21.0106 69.3137C22.5756 68.5602 24.2102 67.8994 25.9259 67.3429C27.4794 66.8444 28.6966 65.3142 29.7632 62.5551C32.302 64.4679 34.7945 65.5112 36.9044 65.5112C38.8288 65.5112 41.0778 64.6418 43.3848 63.0304C44.4049 65.5692 45.4831 66.8908 46.8858 67.3429C48.9262 68.0037 50.8738 68.8152 52.7054 69.7658V81.776L46.2018 89.578C46.1091 89.6939 46.0511 89.8099 46.0279 89.949C45.4715 89.9026 44.9266 89.8446 44.3818 89.7867C37.8898 89.0563 31.6296 87.5377 25.7868 85.277C17.1849 81.9615 11.9913 77.9851 10.6929 76.9302C13.3361 74.0204 16.5821 71.5743 20.2802 69.6847H20.2686ZM2.51994 98.319C2.67065 90.7952 4.88489 84.2221 9.10469 78.7735C9.25539 78.5764 9.41769 78.3793 9.57999 78.1822C10.9364 79.2951 16.1763 83.341 25.0912 86.7957C31.0847 89.1143 37.484 90.6793 44.1267 91.4329C47.2452 91.7922 50.41 91.9661 53.6329 91.9661C58.7685 91.9661 64.0201 91.514 69.3296 90.6098C69.9092 93.0559 70.2338 95.6295 70.2918 98.319H2.51994Z" fill="#A1824A"/>
</g>
<defs>
<clipPath id="clip0_199_8408">
<rect width="71.1222" height="100" fill="white" transform="translate(0.838989)"/>
</clipPath>
</defs>
</svg>
