<svg width="25" height="24" viewBox="0 0 25 24" fill="none" xmlns="http://www.w3.org/2000/svg">
<path d="M4.11094 11.9424C3.16291 10.2893 2.70516 8.93948 2.42915 7.57121C2.02094 5.54758 2.95512 3.57081 4.50269 2.30947C5.15676 1.77638 5.90654 1.95852 6.29332 2.6524L7.1665 4.21891C7.8586 5.46057 8.20466 6.08139 8.13602 6.73959C8.06738 7.39779 7.60068 7.93386 6.66729 9.00601L4.11094 11.9424ZM4.11094 11.9424C6.02982 15.2883 9.04115 18.3013 12.391 20.2224M12.391 20.2224C14.044 21.1704 15.3938 21.6282 16.7621 21.9042C18.7857 22.3124 20.7625 21.3782 22.0238 19.8306C22.5569 19.1766 22.3748 18.4268 21.6809 18.04L20.1144 17.1668C18.8727 16.4747 18.2519 16.1287 17.5937 16.1973C16.9355 16.2659 16.3995 16.7326 15.3273 17.666L12.391 20.2224Z" stroke="#A28485" stroke-width="1.5" stroke-linejoin="round"/>
<path d="M14.3333 3V5.8M19.2835 5.05078L17.3036 7.03068M21.3333 10H18.5333" stroke="#A28485" stroke-width="1.5" stroke-linecap="round"/>
</svg>
