<svg width="75" height="100" viewBox="0 0 75 100" fill="none" xmlns="http://www.w3.org/2000/svg">
<g clip-path="url(#clip0_199_8427)">
<path d="M21.765 55.2C21.465 55.2 21.165 55.1 20.965 54.8C16.865 49.6 13.965 45.2 11.565 40.6C8.76501 35.2 8.66502 28.6 11.265 22.9L19.565 5.49998C19.765 4.99998 20.365 4.79998 20.865 4.99998C21.365 5.19998 21.565 5.79998 21.365 6.29998L13.165 23.7C10.765 28.8 10.865 34.7 13.465 39.6C15.865 44.1 18.665 48.4 22.665 53.5C22.965 53.9 22.965 54.5 22.465 54.9C22.265 55.1 22.065 55.2 21.765 55.2Z" fill="#A1824A"/>
<path d="M57.765 99.9999C57.6983 99.9999 57.6983 99.9999 57.765 99.9999C57.365 99.9999 57.165 99.7999 56.965 99.5999L39.365 77.6999C39.065 77.2999 39.065 76.6999 39.565 76.2999C39.965 75.9999 40.565 75.9999 40.965 76.4999L57.865 97.6999L71.865 85.9999L52.665 61.8999C52.365 61.4999 52.365 60.8999 52.865 60.4999C53.265 60.1999 53.865 60.1999 54.265 60.6999L74.065 85.4999C74.365 85.8999 74.365 86.4999 73.965 86.8999L58.365 99.7999C58.165 99.8999 57.965 99.9999 57.765 99.9999Z" fill="#A1824A"/>
<path d="M17.365 100C17.165 100 16.965 99.9 16.765 99.8L1.26501 86.9C0.86501 86.6 0.76501 86 1.16501 85.5L36.465 41.3C49.965 24.6 53.565 14.5 54.165 8.9C54.265 8 54.165 7.1 53.865 6.3V6.1C53.265 4.6 51.965 3.5 50.265 3.1C46.865 2.4 42.965 2 39.065 2H36.165C32.265 2 28.365 2.4 24.965 3.2C22.365 3.8 20.665 6.3 20.965 8.9C21.565 13.7 23.665 21.9 35.565 37.2C35.865 37.6 35.865 38.2 35.365 38.6C34.965 38.9 34.365 38.9 33.965 38.4C21.765 22.7 19.565 14.2 18.965 9.2C18.565 5.6 20.865 2.2 24.465 1.3C28.065 0.4 31.965 0 36.065 0H38.965C43.065 0 47.065 0.4 50.565 1.3C52.865 1.9 54.665 3.5 55.565 5.6L63.765 22.9C66.365 28.5 66.265 35.1 63.465 40.6C60.865 45.6 57.065 51.1 52.165 57.1L18.165 99.6C17.965 99.8 17.765 100 17.365 100C17.4317 100 17.4317 100 17.365 100ZM3.26501 86L17.265 97.7L50.765 55.9C55.565 50 59.265 44.6 61.765 39.8C64.365 34.9 64.365 28.9 62.065 23.9L55.965 10.9C54.865 17 50.665 27.1 37.965 42.7L3.26501 86Z" fill="#A1824A"/>
<path d="M23.665 21.4C23.165 21.4 22.765 21.1 22.665 20.6C22.565 20.1 22.965 19.6 23.465 19.5C23.765 19.4 31.065 18.3 37.565 18.3C44.065 18.3 51.365 19.5 51.665 19.5C52.165 19.6 52.565 20.1 52.465 20.6C52.365 21.1 51.865 21.5 51.365 21.4C51.265 21.4 43.965 20.2001 37.565 20.2001C31.165 20.2001 23.865 21.4 23.765 21.4H23.665Z" fill="#A1824A"/>
</g>
<defs>
<clipPath id="clip0_199_8427">
<rect width="73.37" height="100" fill="white" transform="translate(0.915009)"/>
</clipPath>
</defs>
</svg>
