<svg width="91" height="90" viewBox="0 0 91 90" fill="none" xmlns="http://www.w3.org/2000/svg">
<g clip-path="url(#clip0_199_8418)">
<path d="M84.5253 27.354C81.3736 27.354 78.8094 29.9181 78.8094 33.0699V51.3447C77.6479 50.2027 76.1172 49.5876 74.4836 49.6208C72.8363 49.6517 71.3113 50.333 70.1899 51.5402L52.3666 70.7364C50.5467 72.6958 49.5441 75.2485 49.5441 77.9224V88.8569C49.5441 89.4879 50.0562 90.0001 50.6873 90.0001H72.6363C73.2673 90.0001 73.7794 89.4879 73.7794 88.8569V83.7503L87.932 64.8799C89.4204 62.8942 90.2412 60.4352 90.2412 57.9534V33.0699C90.2412 29.9181 87.677 27.354 84.5253 27.354ZM87.9548 57.9534C87.9548 59.9437 87.2975 61.9168 86.1029 63.5081L71.7217 82.6837C71.5731 82.8815 71.4931 83.1227 71.4931 83.3697V87.7137H51.8305V77.9224C51.8305 75.827 52.6158 73.8276 54.0414 72.2911L71.8658 53.0961C72.5608 52.3473 73.5051 51.9254 74.5259 51.906C75.5502 51.8866 76.5071 52.2741 77.2284 52.9966L77.7268 53.495C78.3899 54.1581 78.7523 55.0143 78.8083 55.8877V55.9334H78.8106C78.8609 56.8811 78.5511 57.846 77.8766 58.605L66.2951 71.6361L68.0041 73.1554L79.5868 60.1232C80.6694 58.9057 81.1689 57.3612 81.0958 55.842V33.0699C81.0958 31.1791 82.6345 29.6404 84.5253 29.6404C86.4161 29.6404 87.9548 31.1791 87.9548 33.0699V57.9534Z" fill="#A1824A"/>
<path d="M20.2102 51.5413C19.0887 50.3341 17.5637 49.6517 15.9164 49.6219C14.2862 49.5899 12.7521 50.2038 11.5906 51.3458V33.0699C11.5906 29.9181 9.02649 27.354 5.87476 27.354C2.72302 27.354 0.158875 29.9181 0.158875 33.0699V57.9534C0.158875 60.4352 0.978532 62.8954 2.46809 64.8799L16.6206 83.7503V88.8569C16.6206 89.4879 17.1328 90.0001 17.7638 90.0001H39.7128C40.3438 90.0001 40.856 89.4879 40.856 88.8569V77.9224C40.856 75.2485 39.8534 72.6958 38.0335 70.7353L20.2102 51.5413ZM38.5696 87.7137H18.907V83.3697C18.907 83.1227 18.8269 82.8815 18.6783 82.6837L4.29717 63.5081C3.10255 61.9157 2.44523 59.9437 2.44523 57.9534V33.0699C2.44523 31.1791 3.98394 29.6404 5.87476 29.6404C7.76557 29.6404 9.30429 31.1791 9.30429 33.0699V55.842C9.23112 57.3612 9.73069 58.9057 10.8133 60.1232L22.3959 73.1542L24.105 71.6349L12.5223 58.605C11.8479 57.846 11.5381 56.8811 11.5884 55.9334L11.5906 55.8888C11.6467 55.0143 12.009 54.1592 12.6721 53.4962L13.1705 52.9977C13.893 52.2752 14.851 51.8866 15.873 51.9071C16.8938 51.9266 17.8392 52.3484 18.5331 53.0972L36.3587 72.2923C37.7842 73.8276 38.5696 75.8281 38.5696 77.9236V87.7137Z" fill="#A1824A"/>
<path d="M53.9145 52.7485C54.0997 53.1566 54.5066 53.4184 54.9548 53.4184H61.0513C61.6824 53.4184 62.1945 52.9063 62.1945 52.2752C62.1945 48.6171 61.8653 46.6085 61.1771 44.249C61.8355 43.834 62.4117 43.3356 62.9719 42.8463C63.3846 42.4862 63.7744 42.1456 64.1813 41.8541C64.8867 41.3488 65.6915 40.959 66.5432 40.5451C67.5046 40.0787 68.5003 39.5951 69.4102 38.9115C72.7723 36.3851 73.864 31.4866 72.1561 27.7164C72.8455 27.3243 73.4388 26.8487 73.9212 26.292C75.2759 24.7293 75.8555 22.3915 75.5114 19.8776C74.9512 15.7828 72.3139 11.8754 67.6738 8.26639C59.7172 2.07723 49.8299 -0.856163 40.5496 0.21728C35.7311 0.77515 31.0201 2.47734 26.9252 5.14094C22.7126 7.88113 19.3277 11.5382 17.1362 15.7153C15.2968 19.2214 14.5332 22.595 14.867 25.7421C15.2774 29.6209 17.4792 32.9727 20.6137 34.4886C23.2568 35.7666 27.1459 35.6512 29.742 33.9513C30.3742 36.2765 31.9289 38.0907 34.2095 39.0853C35.5265 39.6592 36.9577 39.9427 38.3901 39.9427C39.898 39.9427 41.407 39.6271 42.7811 39.0075C48.5313 42.4908 50.9056 46.1295 53.9145 52.7485ZM55.6887 51.1321C52.8433 44.9852 50.2975 41.1579 44.9657 37.6815C45.6802 37.135 46.3352 36.536 46.9743 35.9495C47.643 35.3345 48.2843 34.7492 48.9645 34.2439C49.3486 36.6938 49.9111 39.3105 51.4338 41.5317C52.8159 43.5482 55.3389 45.2127 57.9465 45.2127C58.3123 45.2127 58.6804 45.1796 59.0462 45.1098C59.5675 46.9435 59.8384 48.5439 59.8967 51.1332H55.6887V51.1321ZM68.3322 36.8458C67.6417 36.8447 66.9055 36.5806 66.2048 36.2845C66.031 36.2113 65.8572 36.1359 65.6835 36.0593C64.8238 35.6843 63.9344 35.2957 62.9364 35.1425C61.3554 34.9013 59.9127 35.3688 58.9765 36.4285L60.6889 37.9432C61.2731 37.2825 62.2128 37.3454 62.59 37.4037C63.2931 37.5111 64.0099 37.8244 64.7689 38.1559C64.9518 38.2359 65.1336 38.3148 65.3165 38.3925C65.3931 38.4245 65.4709 38.4565 65.5497 38.4885C65.5486 38.4897 65.5474 38.4897 65.5452 38.4908C64.6455 38.9275 63.7149 39.3791 62.8507 39.9975C62.3546 40.3531 61.9041 40.7463 61.4686 41.1259C60.7564 41.7466 60.0842 42.3342 59.3274 42.652C57.2103 43.5414 54.6095 42.1238 53.3189 40.2399C51.9013 38.1707 51.4498 35.4648 51.0908 33.0139C51.7253 32.7235 52.3883 32.4629 53.0742 32.1942C53.7796 31.9187 54.5089 31.6329 55.2211 31.3048C56.9713 30.5 59.1685 28.9796 60.3391 27.0728C62.6838 28.3006 65.2616 29.2494 68.2396 28.911C68.8718 28.839 69.4708 28.7258 70.0333 28.5738C71.3033 31.2762 70.606 34.8921 68.3322 36.8458ZM21.6083 32.4309C19.2168 31.274 17.4632 28.5543 17.1396 25.5021C16.855 22.811 17.5352 19.8765 19.1596 16.7785C21.8232 11.7028 26.3091 7.59991 31.7048 5.07464V5.21067C32.0615 5.20725 32.2124 5.31928 32.3142 5.42902C32.6342 5.77197 32.7223 6.35842 32.5279 6.85342C32.2776 7.49246 31.7403 8.06519 31.171 8.67221L31.0887 8.75909C30.349 9.54903 29.5991 10.4156 29.2664 11.5576C28.8915 12.846 29.2184 14.5699 30.5662 15.3724L31.7357 13.4084C31.4465 13.2358 31.3207 12.6813 31.4625 12.1966C31.6534 11.5393 32.1838 10.9357 32.7577 10.323L32.8389 10.2361C33.4973 9.53302 34.245 8.73509 34.6554 7.68908C35.1435 6.44645 34.9435 5.05063 34.1512 4.06064C36.2775 3.29014 38.5125 2.75513 40.8091 2.48877C43.4704 2.18126 46.1877 2.22813 48.8914 2.60652C49.0994 3.72226 49.0491 4.88601 48.7325 5.97775C48.7016 6.08521 48.6673 6.19266 48.6341 6.30127C48.4272 6.96659 48.17 7.7954 48.3735 8.69279C48.6662 9.98801 49.719 10.7151 50.565 11.2981C51.1629 11.7108 51.7287 12.1006 51.8248 12.5259L54.0539 12.0183C53.759 10.7254 52.7084 9.99944 51.8625 9.41642C51.2635 9.00373 50.6987 8.61391 50.6027 8.18865C50.5352 7.88799 50.6713 7.44673 50.8165 6.97917C50.8542 6.85685 50.8919 6.73567 50.9274 6.6145C51.2646 5.45189 51.3709 4.22754 51.2543 3.02492C53.7419 3.55421 56.2008 4.36129 58.5775 5.43359C58.1854 7.48102 58.7295 9.70107 60.0911 11.2981C60.8044 12.1349 61.6755 12.7591 62.5169 13.3638C63.5686 14.1194 64.562 14.8328 65.0056 15.8205L67.0919 14.8854C66.3968 13.3341 65.1027 12.4047 63.8498 11.5061C63.085 10.9574 62.3637 10.4396 61.8298 9.81425C61.0662 8.91914 60.6867 7.69022 60.7472 6.50018C62.6632 7.51875 64.5129 8.71108 66.2642 10.0726C70.4162 13.3021 72.7632 16.7053 73.2399 20.1886C73.4079 21.4175 73.297 22.5641 72.9369 23.5095C72.8649 23.4329 72.7929 23.3552 72.7209 23.2774C72.1584 22.6704 71.5217 21.9834 70.6563 21.5375C68.7609 20.5601 66.5729 21.1214 65.1245 21.4929L65.6926 23.7073C67.165 23.33 68.5723 23.0351 69.6091 23.5701C70.119 23.833 70.5683 24.3177 71.0438 24.8322C71.2085 25.0093 71.3799 25.1934 71.5606 25.3763C70.4871 26.1903 69.0673 26.5149 67.9755 26.6384C65.5852 26.9105 63.4669 26.1617 61.1165 24.8985C61.5017 22.6315 61.1165 20.6813 59.9642 19.09C58.3809 16.9042 55.6624 15.968 53.815 15.8296C50.5421 15.5839 46.0071 16.24 41.9991 17.685C42.0483 17.2815 42.0323 16.8585 41.918 16.4275C41.7957 15.9611 41.5796 15.5713 41.3898 15.2283C41.2252 14.9311 41.0697 14.6499 41.0629 14.4613C41.0549 14.2578 41.2321 13.9503 41.5465 13.6187C41.6619 13.4976 41.7888 13.3752 41.9237 13.2461C42.2689 12.9145 42.661 12.5373 42.972 12.0503C43.6179 11.0363 43.6476 9.83254 43.0486 8.98544L41.1818 10.3058C41.2046 10.3515 41.1978 10.5802 41.0435 10.8225C40.88 11.0786 40.6182 11.3312 40.3404 11.5976C40.1929 11.7394 40.0409 11.8857 39.89 12.0446C39.1206 12.854 38.7468 13.6953 38.7788 14.5459C38.8063 15.2798 39.1298 15.8651 39.3904 16.3349C39.5276 16.583 39.6568 16.8173 39.7071 17.0083C39.8545 17.5707 39.4624 18.2943 39.0132 18.9699C37.8654 19.5575 36.8171 20.2206 35.9277 20.9591C34.1798 22.4098 32.7874 23.9108 31.738 25.4826C30.9481 25.629 30.1433 25.7616 29.4082 25.6838C28.6697 25.6049 28.0524 25.2917 27.7552 24.8459C27.5048 24.4698 27.4099 23.9268 27.3196 23.3083L27.3105 23.2477C27.2019 22.5024 27.0784 21.6564 26.6291 20.8733C26.0027 19.7827 24.8435 19.1586 23.7449 19.3175L24.073 21.5798C24.2148 21.5592 24.4857 21.7319 24.6469 22.0131C24.8801 22.4178 24.9612 22.9814 25.0481 23.5781L25.0573 23.6387C25.1784 24.4686 25.3396 25.3432 25.8529 26.1137C26.532 27.1334 27.7403 27.8067 29.167 27.9576C29.4036 27.9827 29.638 27.9942 29.8712 27.9942C30.0438 27.9942 30.2153 27.9862 30.3856 27.9759C29.9524 28.9979 29.6494 30.0496 29.4734 31.1368C27.8923 33.2174 23.9495 33.5637 21.6083 32.4309ZM35.1229 36.9898C32.3805 35.7941 31.7494 33.4483 31.7128 31.6558C32.1953 28.416 34.0541 25.4918 37.3944 22.7196C41.2469 19.5232 48.9097 17.7559 53.6504 18.1103C54.0551 18.1411 54.6095 18.2395 55.2063 18.4372C54.6141 19.6124 53.0525 20.3829 52.0682 20.7682C51.7916 20.8768 51.5127 20.9797 51.2177 21.0894C49.5361 21.7136 47.6304 22.4201 46.4027 24.0342C46.1397 24.3806 45.934 24.7327 45.7351 25.0745C45.5064 25.4678 45.2904 25.8393 45.032 26.1045C44.5336 26.6178 43.7219 26.9002 42.8657 27.1677L42.7868 27.1917C41.7888 27.5026 40.6582 27.8547 39.7448 28.6618C38.6817 29.6015 38.0129 31.3083 38.7925 32.7532L40.8045 31.6672C40.6285 31.3403 40.8365 30.7481 41.2584 30.3754C41.806 29.8919 42.6119 29.6404 43.467 29.374L43.5459 29.3488C44.649 29.0048 45.8002 28.5932 46.6713 27.6958C47.1252 27.2294 47.4361 26.6944 47.7105 26.2223C47.8819 25.9285 48.0431 25.6507 48.2215 25.4163C49.048 24.3303 50.4884 23.7964 52.0122 23.2306C52.3037 23.122 52.6055 23.0111 52.9005 22.8945C55.0474 22.0542 56.5141 20.9008 57.2297 19.5084C57.5566 19.7702 57.8607 20.0743 58.1179 20.4298C58.9948 21.6393 59.2005 23.2329 58.733 25.166C58.1785 26.7355 56.0739 28.3909 54.2643 29.2231C53.6127 29.5226 52.9462 29.7844 52.2397 30.0599C50.9068 30.5812 49.5281 31.1208 48.2615 31.9416C47.2086 32.624 46.3021 33.4563 45.4264 34.2611C44.4993 35.1127 43.6247 35.9164 42.6268 36.5108C40.3896 37.8507 37.5133 38.0324 35.1229 36.9898Z" fill="#A1824A"/>
</g>
<defs>
<clipPath id="clip0_199_8418">
<rect width="90.0823" height="90" fill="white" transform="translate(0.158875)"/>
</clipPath>
</defs>
</svg>
