<svg width="62" height="100" viewBox="0 0 62 100" fill="none" xmlns="http://www.w3.org/2000/svg">
<g clip-path="url(#clip0_199_8412)">
<path d="M61.7403 67.1936C61.7016 55.4388 51.8049 46.1001 40.8887 42.9807C45.0662 41.571 48.6565 38.813 51.0952 35.142C51.1436 35.0807 51.1855 35.0162 51.221 34.9452C54.3984 30.0549 55.2533 24.0097 53.5565 18.4291C58.3565 16.0001 60.2791 10.142 57.85 5.342C56.192 2.06135 52.8274 -0.00316463 49.15 6.11791e-05C45.5113 -0.012842 42.1726 2.01619 40.5081 5.25167C30.0694 1.9678 18.9436 7.77103 15.6597 18.2097C14.721 21.2001 14.5016 24.3678 15.0242 27.4581C16.1758 34.2646 20.7694 39.9872 27.1662 42.5807C22.8274 43.6355 18.8468 45.8194 15.6274 48.9097C15.0339 48.8226 14.4307 48.7775 13.8307 48.7775C7.00164 48.7839 1.46938 54.3162 1.46293 61.1452C1.46293 63.113 1.9339 65.0517 2.83712 66.7968C1.80809 69.5743 -2.86933 83.4162 3.10487 91.0065C4.77261 93.1226 7.10164 94.5549 10.0629 95.2614V98.9226C10.0629 99.5162 10.5468 100 11.1403 100C11.7339 100 12.2145 99.5194 12.2178 98.9226V95.6485C13.1823 95.7614 14.15 95.8194 15.121 95.8162C16.5533 95.8065 17.9791 95.7097 19.3984 95.5194C20.7307 97.171 22.2468 98.4904 23.9662 99.2517C25.05 99.742 26.2242 99.9968 27.4113 100C29.3468 100 31.392 99.3259 33.4823 97.9839C34.8597 98.7291 36.4081 99.1097 37.9758 99.0904C41.0984 99.0904 44.1049 97.7678 45.8532 96.6001C48.9565 94.7646 51.7597 92.4678 54.1694 89.7904V98.9194C54.2016 99.5162 54.7113 99.971 55.3081 99.9388C55.8597 99.9097 56.2984 99.4678 56.3274 98.9194V87.0968C62.8726 77.8226 61.8791 68.2581 61.7403 67.1936ZM49.1597 2.15813C53.35 2.15813 56.7468 5.5549 56.7468 9.74522C56.7468 12.5097 55.2436 15.0549 52.821 16.3904C50.8307 11.7614 47.1597 8.0549 42.55 6.02264C43.8823 3.62909 46.4113 2.15167 49.15 2.15813H49.1597ZM34.5855 6.50329C44.3436 6.49684 52.2565 14.4033 52.2629 24.1614C52.2629 27.2968 51.4307 30.3775 49.85 33.0839C42.321 29.4194 40.4726 20.0323 40.4533 19.9355C40.3436 19.3517 39.7791 18.9646 39.1952 19.0743C38.9823 19.113 38.7855 19.2162 38.6339 19.371C29.8629 28.1388 19.7597 26.9452 17.0533 26.4259C15.792 16.7678 22.5984 7.91296 32.2597 6.65167C33.0307 6.55167 33.8081 6.50006 34.5855 6.50329ZM17.4887 28.6839C25.2081 29.771 33.0113 27.3839 38.8049 22.1678C39.7726 25.3291 42.4016 31.7259 48.6403 34.8904C42.7307 42.6581 31.6436 44.1614 23.8758 38.2517C20.7403 35.8646 18.492 32.4968 17.4887 28.6839ZM13.8403 50.942C19.4823 50.942 24.0533 55.513 24.0533 61.1549C24.0533 66.7968 19.4823 71.3678 13.8403 71.3678C8.19841 71.3678 3.62745 66.7968 3.62745 61.1549C3.62422 55.513 8.18874 50.9355 13.8307 50.9259L13.8403 50.942ZM4.80809 89.6839C0.291962 83.9484 2.96293 73.413 4.35003 69.0775C6.07261 71.142 8.41777 72.5872 11.0339 73.1968C11.5242 76.1162 13.5274 86.571 17.9629 93.5194C11.7145 94.1162 7.28874 92.8291 4.80164 89.6775L4.80809 89.6839ZM24.8371 97.3001C23.3274 96.6291 21.9855 95.4162 20.7952 93.871C20.7436 93.7839 20.6823 93.7001 20.6113 93.6291C16.2016 87.6968 13.9662 77.2452 13.2823 73.5097H13.8371C17.3436 73.5097 20.6855 72.0194 23.0274 69.4065C25.7887 67.5775 30.821 64.9549 32.8984 65.5355C33.9371 65.8194 35.2274 66.6517 35.4436 68.0581C35.7952 70.3355 33.2307 73.4259 28.4081 76.5388C27.9436 76.842 27.7823 77.4484 28.0371 77.942C28.1403 78.1388 30.3436 82.3162 33.0952 84.9194C27.392 91.0485 30.8371 95.7839 30.9242 95.8872C31.1436 96.142 31.3758 96.3872 31.6178 96.6194C29.1468 97.9839 26.9178 98.2097 24.8307 97.2839L24.8371 97.3001ZM44.7049 94.7936C44.3823 95.0001 37.0726 99.7839 32.6049 94.5259C32.5726 94.4839 29.3984 90.113 37.2081 84.1065C45.8726 77.4452 47.5307 76.0904 47.6145 76.042C48.0758 75.6678 48.1468 74.9872 47.7726 74.5259C47.3984 74.0646 46.7178 73.9936 46.2565 74.3678C46.2565 74.3678 44.5113 75.7807 35.8952 82.4033C35.45 82.7452 35.0371 83.0872 34.65 83.4226C32.8339 81.7388 31.1984 79.1291 30.421 77.7936C36.9049 73.3839 37.9081 69.9065 37.5726 67.7323C37.1984 65.3065 35.1274 63.9162 33.4662 63.4614C31.3049 62.8743 27.9823 64.2162 25.4016 65.5484C27.8274 59.1678 24.621 52.0323 18.2436 49.6065C18.2113 49.5936 18.1791 49.5807 18.1436 49.5678C22.3371 45.9872 27.6726 44.0259 33.1855 44.0388C45.6533 44.0388 59.5952 53.9807 59.5952 67.2904C59.5887 67.3452 59.5887 67.4033 59.5952 67.4581C59.6242 67.6033 62.0629 84.3355 44.6984 94.7775L44.7049 94.7936Z" fill="#A1824A"/>
</g>
<defs>
<clipPath id="clip0_199_8412">
<rect width="61.7516" height="100" fill="white" transform="translate(0.124222)"/>
</clipPath>
</defs>
</svg>
