<svg width="32" height="33" viewBox="0 0 32 33" fill="none" xmlns="http://www.w3.org/2000/svg">
<path d="M29.3333 16.5H2.66667" stroke="#A1824A" stroke-width="2" stroke-linecap="round" stroke-linejoin="round"/>
<path d="M26.6667 23.1667H21.3333C18.8192 23.1667 17.5621 23.1667 16.781 22.3856C16 21.6046 16 20.3475 16 17.8333V16.5" stroke="#A1824A" stroke-width="2" stroke-linecap="round" stroke-linejoin="round"/>
<path d="M5.33333 16.5V29.8333M26.6667 16.5V29.8333" stroke="#A1824A" stroke-width="2" stroke-linecap="round" stroke-linejoin="round"/>
<path d="M20.0535 3.96546C19.0784 3.03759 17.4976 3.03759 16.5225 3.96546C15.9713 4.49005 15.7597 5.09261 16.3689 5.67227L18.257 7.46901C18.8653 8.0479 19.4958 7.85627 20.0535 7.32558C21.0285 6.39771 21.0285 4.89333 20.0535 3.96546ZM20.0535 3.96546C20.7144 3.53106 21.4575 2.9236 22.2831 3.26848C22.6704 3.4303 22.9362 3.8264 23.4677 4.61861L25.4657 7.59648C26.2185 8.71843 26.5949 9.27941 26.6575 9.91525C26.7201 10.5511 26.4597 11.1685 25.939 12.4032L24.2112 16.5001" stroke="#A1824A" stroke-width="2" stroke-linejoin="round"/>
<path d="M5.33333 16.5V10.5C5.33333 8.99751 5.93413 8.5 7.33333 8.5C8.73253 8.5 9.33333 8.99751 9.33333 10.5V16.5" stroke="#A1824A" stroke-width="2" stroke-linecap="round" stroke-linejoin="round"/>
<path d="M9.33333 16.5V10.5C9.33333 8.99751 9.93413 8.5 11.3333 8.5C12.7325 8.5 13.3333 8.99751 13.3333 10.5V16.5" stroke="#A1824A" stroke-width="2" stroke-linecap="round" stroke-linejoin="round"/>
</svg>
