<svg width="42" height="96" viewBox="0 0 42 96" fill="none" xmlns="http://www.w3.org/2000/svg">
<path d="M8.75 18.9C8.75 14.3172 8.75 12.0258 9.78152 10.3425C10.3587 9.40062 11.1506 8.60871 12.0925 8.03152C13.7758 7 16.0672 7 20.65 7H21.35C25.9328 7 28.2242 7 29.9075 8.03152C30.8494 8.60871 31.6413 9.40062 32.2185 10.3425C33.25 12.0258 33.25 14.3172 33.25 18.9V24.5C33.25 26.1255 33.25 26.9382 33.1602 27.6205C32.5399 32.3322 28.8322 36.0399 24.1205 36.6602C23.4382 36.75 22.6255 36.75 21 36.75V36.75C19.3745 36.75 18.5618 36.75 17.8795 36.6602C13.1678 36.0399 9.46014 32.3322 8.83983 27.6205C8.75 26.9382 8.75 26.1255 8.75 24.5V18.9Z" stroke="#222222" stroke-width="1.75" stroke-linejoin="round"/>
<path d="M21 7V15.75" stroke="#222222" stroke-width="1.75" stroke-linecap="round" stroke-linejoin="round"/>
<path d="M21 94L20.3813 94.6187L21 95.2374L21.6187 94.6187L21 94ZM21.875 28.5C21.875 28.0168 21.4832 27.625 21 27.625C20.5168 27.625 20.125 28.0168 20.125 28.5L21.875 28.5ZM13.3813 87.6187L20.3813 94.6187L21.6187 93.3813L14.6187 86.3813L13.3813 87.6187ZM21.6187 94.6187L28.6187 87.6187L27.3813 86.3813L20.3813 93.3813L21.6187 94.6187ZM21.875 94L21.875 28.5L20.125 28.5L20.125 94L21.875 94Z" fill="#222222"/>
</svg>
