<svg width="102" height="100" viewBox="0 0 102 100" fill="none" xmlns="http://www.w3.org/2000/svg">
<g clip-path="url(#clip0_199_8404)">
<path fill-rule="evenodd" clip-rule="evenodd" d="M53.4007 7.61307H44.0205C43.5767 5.75488 43.0707 3.90291 42.4983 2.07376H52.0713C52.6437 2.07376 53.1082 1.60921 53.1082 1.03682C53.1082 0.464431 52.6458 -0.000115936 52.0754 -0.000115936H41.0798C40.7459 -0.000115936 40.4327 0.159572 40.2399 0.429175C40.0449 0.698779 39.991 1.04719 40.0968 1.36242C40.9118 3.81373 41.6065 6.3169 42.1831 8.83043C42.1893 8.86361 42.1955 8.89472 42.2059 8.9279C42.7036 11.1055 43.1122 13.2934 43.4315 15.4668C43.4357 15.5187 43.4419 15.5684 43.4544 15.6161C43.7675 17.7688 43.9977 19.909 44.1408 22.0099C44.1408 22.0161 44.1408 22.0244 44.1408 22.0306C44.1408 22.0845 44.145 22.1385 44.1533 22.1924C44.286 24.204 44.3399 26.1825 44.3171 28.1029C44.3129 28.1382 44.3109 28.1734 44.3109 28.2087C44.3109 28.2356 44.3109 28.2605 44.3129 28.2875C44.2445 33.0387 43.7012 37.4353 42.6995 41.1642C42.3262 42.5495 41.8948 43.8415 41.3992 45.0216C42.1375 40.2517 42.4029 36.0687 41.7061 32.8687C41.003 29.6438 39.3605 27.3501 36.4115 26.2655C31.5483 24.4736 26.5523 25.5313 21.8674 28.6172C17.3671 31.5808 13.1447 36.4378 9.64197 42.3338C3.38925 52.8421 -0.590514 66.652 0.0586078 78.6888C0.500342 86.8681 3.07816 94.2304 8.43912 99.272C8.87878 99.6867 9.32466 99.8962 9.77262 99.9688C10.3948 100.07 11.0626 99.9066 11.7988 99.4296C13.63 98.2454 16.2887 94.6451 22.0064 91.6588C24.2171 90.5036 28.396 89.7716 31.3969 88.0896C33.73 86.781 35.387 84.9353 35.4057 82.1584C35.4513 75.4224 36.7682 68.112 38.2137 61.0858C42.2536 59.3873 45.7978 56.7949 48.805 53.2362C51.8121 56.797 55.3563 59.3893 59.3962 61.0858C60.8417 68.112 62.1586 75.4224 62.2042 82.1584C62.2229 84.9353 63.882 86.781 66.213 88.0896C69.2118 89.7716 73.3907 90.5036 75.6035 91.6588C81.3212 94.6451 83.9799 98.2454 85.8111 99.4296C86.5473 99.9045 87.2151 100.07 87.8373 99.9688C88.2852 99.8962 88.7311 99.6847 89.1708 99.272C98.329 90.6592 99.3182 75.2005 95.5313 60.615C99.1689 58.4768 101.614 54.522 101.614 50.0009C101.614 43.2111 96.1017 37.6966 89.3097 37.6966C87.9348 37.6966 86.6137 37.9227 85.3777 38.3395C78.5069 28.7002 69.6162 23.163 61.2026 26.2634C58.2348 27.3563 56.5882 29.6749 55.8934 32.935C55.1821 36.2719 55.5098 40.6685 56.3186 45.679C55.7006 44.3268 55.1738 42.8108 54.73 41.1621C53.7263 37.4333 53.1829 33.0367 53.1145 28.2854C53.1145 28.2605 53.1165 28.2336 53.1165 28.2066C53.1165 28.1714 53.1165 28.1361 53.1124 28.1008C53.0896 26.1804 53.1435 24.204 53.2762 22.1903C53.2845 22.1385 53.2887 22.0845 53.2887 22.0285C53.2887 22.0223 53.2887 22.014 53.2887 22.0078C53.4318 19.907 53.6599 17.7688 53.973 15.6141C53.9834 15.5643 53.9917 15.5145 53.9959 15.4647C54.3173 13.2913 54.7259 11.1034 55.2215 8.92583C55.2298 8.89472 55.2381 8.86154 55.2443 8.82835C55.8209 6.31275 56.5156 3.81166 57.3306 1.36034C57.5111 0.816989 57.2166 0.230084 56.6732 0.049657C56.1299 -0.13077 55.543 0.16372 55.3625 0.707074C54.6097 2.97589 53.9564 5.28618 53.4027 7.60892L53.4007 7.61307ZM46.3557 29.2435C46.2313 33.8268 45.6734 38.0699 44.6966 41.6992C43.6846 45.4633 42.2038 48.5679 40.3104 50.7765C40.2357 50.9134 40.1299 51.0296 40.0076 51.1187C38.166 53.1262 35.9552 54.3104 33.4168 54.468C32.8465 54.5033 32.3529 54.0699 32.3177 53.4975C32.2824 52.9272 32.7179 52.4336 33.2882 52.3983C35.2895 52.2739 36.9984 51.3593 38.4335 49.8329C39.5161 44.3164 40.2751 39.3412 39.9786 35.4423C39.7069 31.8815 38.5642 29.2643 35.6939 28.2066C31.4466 26.6429 27.0977 27.6508 23.0081 30.3427C18.7359 33.1569 14.752 37.79 11.4234 43.3873C5.37601 53.5618 1.5041 66.9258 2.13248 78.5747C2.54311 86.1858 4.87414 93.0669 9.86387 97.7601C9.9572 97.8472 10.0339 97.9198 10.1293 97.9239C10.2683 97.9302 10.4031 97.8514 10.5607 97.7601C10.8241 97.6066 11.104 97.3868 11.4151 97.1214C13.2775 95.5286 16.017 92.451 21.0503 89.8213C22.9064 88.8528 26.1355 88.1747 28.9082 86.9967C31.2517 86.0013 33.3173 84.676 33.3339 82.1439C33.3774 75.6837 34.5575 68.7031 35.9262 61.9361C34.7296 62.3239 33.4956 62.6412 32.2223 62.89C31.6603 63 31.1148 62.6329 31.0049 62.0709C30.895 61.5088 31.2621 60.9634 31.8241 60.8535C33.5744 60.5113 35.2481 60.0281 36.8387 59.4018C36.8989 59.3707 36.9611 59.3458 37.0254 59.3271C41.2789 57.6141 44.9517 54.8559 47.9878 50.9508C48.1849 50.6977 48.4856 50.5505 48.807 50.5505C49.1285 50.5505 49.4292 50.6977 49.6262 50.9508C52.681 54.8787 56.3787 57.6473 60.6654 59.3603C60.6779 59.3645 60.6903 59.3707 60.7028 59.3748C62.3162 60.0156 64.0126 60.5072 65.79 60.8556C66.352 60.9655 66.7191 61.5109 66.6091 62.0729C66.4992 62.6349 65.9538 63.002 65.3918 62.8921C64.1184 62.6432 62.8845 62.3259 61.6878 61.9381C63.0545 68.7072 64.2346 75.6858 64.2781 82.1459C64.2947 84.6781 66.3603 86.0033 68.7037 86.9988C71.4765 88.1747 74.7076 88.8528 76.5616 89.8234C81.5949 92.4531 84.3345 95.5286 86.1968 97.1234C86.5079 97.3889 86.7879 97.6087 87.0513 97.7622C87.2089 97.8555 87.3437 97.9343 87.4827 97.926C87.578 97.9219 87.6548 97.8493 87.7481 97.7622C96.3339 89.6865 97.0971 75.2192 93.6213 61.5254C92.2774 62.0294 90.8237 62.3052 89.3056 62.3052C82.5157 62.3052 77.0013 56.7929 77.0013 50.0009C77.0013 45.3368 79.6019 41.2761 83.4303 39.1898C80.39 34.9965 76.964 31.6264 73.3596 29.5837C69.6391 27.4745 65.734 26.8005 61.916 28.2087C59.0229 29.2747 57.8844 31.9271 57.6231 35.5294C57.3389 39.4719 58.1208 44.5031 59.2199 50.0714C60.6074 51.4547 62.2416 52.2801 64.135 52.3983C64.7053 52.4336 65.1408 52.9272 65.1056 53.4975C65.0703 54.0678 64.5767 54.5033 64.0064 54.468C61.5821 54.3167 59.4543 53.2279 57.6625 51.3821C57.5422 51.2992 57.4406 51.1913 57.3659 51.0648C55.3501 48.8437 53.7822 45.6313 52.7246 41.6992C51.7478 38.0699 51.1899 33.8268 51.0655 29.2435H46.3536H46.3557ZM93.9158 59.1322C97.2485 57.444 99.536 53.9869 99.536 49.9988C99.536 44.3517 94.9527 39.7684 89.3056 39.7684C87.9348 39.7684 86.6282 40.038 85.4337 40.5275C85.4026 40.542 85.3694 40.5565 85.3362 40.569C81.6592 42.1202 79.0773 45.7599 79.0773 49.9988C79.0773 55.646 83.6605 60.2293 89.3077 60.2293C90.917 60.2293 92.4392 59.858 93.7934 59.1944C93.8328 59.1716 93.8743 59.1508 93.9179 59.1322H93.9158ZM91.4168 57.2761C90.9979 55.9633 90.2658 55.0072 89.345 54.269C88.8991 53.9102 88.2458 53.9828 87.8871 54.4307C87.5283 54.8766 87.6009 55.5299 88.0488 55.8886C88.6689 56.3843 89.1604 57.0251 89.4425 57.9086C89.6167 58.454 90.1994 58.7547 90.7449 58.5805C91.2903 58.4063 91.591 57.8236 91.4168 57.2781V57.2761ZM83.9985 49.6898C83.7206 50.5733 83.2312 51.2162 82.6132 51.716C82.1673 52.0769 82.0989 52.7301 82.4597 53.1739C82.8206 53.6198 83.4739 53.6883 83.9177 53.3274C84.8364 52.585 85.5643 51.6268 85.977 50.3099C86.1491 49.7645 85.8443 49.1817 85.2989 49.0096C84.7534 48.8375 84.1707 49.1423 83.9985 49.6878V49.6898ZM91.8668 50.8014C90.9419 50.8367 90.1704 50.592 89.4943 50.1793C89.0049 49.8806 88.3682 50.0362 88.0696 50.5235C87.7709 51.013 87.9265 51.6497 88.4138 51.9483C89.4217 52.5642 90.5686 52.9272 91.9477 52.8732C92.5201 52.8504 92.966 52.3693 92.9432 51.7969C92.9203 51.2245 92.4392 50.7786 91.8668 50.8014ZM96.9996 50.8637C96.4729 50.1025 96.2676 49.3207 96.2531 48.5264C96.2427 47.954 95.7698 47.4978 95.1974 47.5081C94.6251 47.5185 94.1688 47.9913 94.1792 48.5637C94.202 49.7438 94.511 50.9072 95.2949 52.0416C95.6205 52.5124 96.2676 52.6306 96.7383 52.305C97.2091 51.9794 97.3273 51.3323 97.0017 50.8616L96.9996 50.8637ZM84.405 43.2754C84.544 44.192 84.3843 44.9842 84.0483 45.7018C83.8057 46.2203 84.0297 46.8383 84.5502 47.0809C85.0687 47.3236 85.6867 47.0996 85.9293 46.5811C86.4291 45.511 86.6635 44.331 86.4561 42.9663C86.3711 42.4002 85.8422 42.0103 85.276 42.0953C84.7099 42.1804 84.32 42.7092 84.405 43.2754ZM93.2314 44.2978C92.4828 44.8453 91.7071 45.0713 90.9149 45.1066C90.3425 45.1315 89.9008 45.6168 89.9257 46.1891C89.9506 46.7615 90.4358 47.2053 91.0082 47.1784C92.1883 47.1245 93.3413 46.7864 94.455 45.9714C94.9175 45.6333 95.017 44.9842 94.679 44.5218C94.3409 44.0593 93.6918 43.9597 93.2293 44.2978H93.2314ZM46.2686 23.0676C46.3433 24.455 46.3806 25.8258 46.3827 27.1697H51.0427C51.0427 25.8237 51.0821 24.455 51.1567 23.0676H46.2707H46.2686ZM45.6506 16.4291C45.8538 17.9638 46.0135 19.4881 46.1317 20.9958H51.2915C51.4097 19.4881 51.5694 17.9638 51.7727 16.4291H45.6485H45.6506ZM44.4892 9.68694C44.821 11.2423 45.1072 12.8019 45.3499 14.3552H52.0734C52.316 12.8019 52.6043 11.2444 52.934 9.68694H44.4892Z" fill="#A1824A"/>
</g>
<defs>
<clipPath id="clip0_199_8404">
<rect width="101.62" height="100" fill="white" transform="translate(-0.00982666)"/>
</clipPath>
</defs>
</svg>
