<svg width="64" height="71" viewBox="0 0 64 71" fill="none" xmlns="http://www.w3.org/2000/svg">
<g clip-path="url(#clip0_199_8213)">
<path d="M20.8437 44.6734C15.9306 45.7723 11.0174 46.8711 6.10419 47.97L7.55152 44.2384C10.1755 47.6478 12.7995 51.0573 15.4235 54.4668C15.7983 54.9537 16.173 55.4407 16.5478 55.9276C17.3106 56.9188 17.1671 58.3973 16.1763 59.1847C15.2059 59.956 13.6856 59.809 12.9192 58.8133C10.2952 55.4038 7.67124 51.9943 5.04725 48.5848C4.67249 48.0979 4.29773 47.6109 3.92297 47.124C2.8168 45.6867 3.68067 43.7703 5.37029 43.3924C10.2835 42.2935 15.1967 41.1946 20.1098 40.0958C21.3319 39.8225 22.5757 40.8354 22.7656 42.0176C22.9747 43.3195 22.0686 44.3994 20.8437 44.6734Z" fill="#01010C"/>
<path d="M62.1141 18.4332C57.8091 26.6918 49.6049 32.7046 40.2878 33.8591C35.2756 34.4802 29.2917 33.6994 26.0347 29.3814C23.1067 25.4995 23.0459 19.4885 27.4321 16.6209C31.8714 13.7184 37.228 15.0434 41.3313 17.866C43.4318 19.3109 45.3506 21.0682 47.2102 22.8075C48.8927 24.3811 50.5472 26.0265 51.8463 27.9397C54.5566 31.9314 55.5524 36.7753 53.5214 41.309C51.4716 45.8846 47.3469 49.1298 42.6437 50.6779C37.13 52.4927 31.1248 52.5921 25.3776 52.2864C19.068 51.9508 12.8253 50.7792 6.78332 48.9424C5.58427 48.5779 5.03194 47.0486 5.46057 45.9435C5.9423 44.7015 7.25699 44.2552 8.45949 44.6208C17.0097 47.22 26.313 48.4509 35.233 47.5112C39.1583 47.0977 43.1768 46.1166 46.2387 43.4909C48.9001 41.2085 50.6256 37.7393 49.7763 34.21C48.9725 30.8695 46.269 28.1832 43.813 25.9463C40.9474 23.3362 37.5784 19.841 33.4739 19.601C30.3887 19.4207 27.7404 21.555 28.7799 24.7882C29.9955 28.5693 34.3718 29.575 37.8996 29.4288C46.0812 29.0895 54.0101 24.013 57.7925 16.757C58.371 15.6471 59.5316 14.9456 60.7914 15.4342C61.8597 15.8486 62.6965 17.316 62.1141 18.4332Z" fill="#01010C"/>
</g>
<defs>
<clipPath id="clip0_199_8213">
<rect width="58.0663" height="45.2776" fill="white" transform="matrix(-0.361607 0.93233 0.93233 0.361607 20.9972 0)"/>
</clipPath>
</defs>
</svg>
